<svg width="65" height="42" viewBox="0 0 65 42" fill="none" xmlns="http://www.w3.org/2000/svg">
<path d="M21.82 15.04V20.7H20C13.7399 20.7 9.00997 21.4194 5.86777 22.9073C4.29193 23.6392 3.09005 24.6989 2.28696 26.09C1.48614 27.4771 1.09998 29.162 1.09998 31.12C1.09998 34.4533 2.12414 37.0344 4.2435 38.7671C6.34358 40.4841 9.43795 41.3 13.44 41.3C16.1538 41.3 18.2985 40.8137 19.8046 39.7711C20.9807 38.9569 21.9085 37.7977 22.6007 36.3185C23.2545 37.7893 24.3538 38.9403 25.8837 39.7606C27.825 40.8016 30.4376 41.3 33.68 41.3C37.271 41.3 39.9746 40.4028 41.6556 38.4901C43.3226 36.5931 44.2053 33.2135 44.4195 28.5027L44.4417 28.0137L43.9532 27.9811L42.7532 27.9011L42.2501 27.8676L42.2208 28.3709C42.0617 31.1024 41.7185 33.0997 41.2139 34.399C40.7026 35.7155 40.1058 36.14 39.52 36.14C39.2104 36.14 38.9633 36.0714 38.7615 35.9508C38.559 35.8298 38.3748 35.64 38.2167 35.3565C37.892 34.7742 37.7 33.8366 37.7 32.48V16.24C37.7 10.4435 36.4719 6.30769 33.8524 4.02649C31.3045 1.70845 26.7646 0.619995 20.4 0.619995C14.794 0.619995 10.5072 1.4419 7.60638 3.14908C4.66434 4.88052 3.17998 7.506 3.17998 10.96C3.17998 13.255 3.77543 15.067 5.05275 16.2998C6.32677 17.5293 8.19393 18.1 10.56 18.1C12.684 18.1 14.4837 17.5106 15.9216 16.3028L15.9217 16.3029L15.9303 16.2954C17.3538 15.0427 18.1 13.5524 18.1 11.84C18.1 10.1983 17.8815 8.77436 17.4272 7.582L17.3046 7.26H16.96H15.321C15.092 6.52004 14.98 5.80724 14.98 5.12C14.98 4.37904 15.2705 3.84622 15.8704 3.46059L15.8704 3.46064L15.8773 3.45602C16.5953 2.97735 17.3789 2.74 18.24 2.74C18.9431 2.74 19.4918 2.93094 19.9218 3.28568C20.3578 3.6454 20.7141 4.20877 20.9615 5.025L20.9641 5.03382L20.9671 5.04254C21.5226 6.65834 21.82 9.96253 21.82 15.04ZM20.7597 35.3629L20.7597 35.3629L20.7564 35.3693C20.0816 36.667 19.4357 37.1 18.88 37.1C18.5667 37.1 18.3326 37.0231 18.1506 36.8931C17.9685 36.763 17.8023 36.5537 17.6698 36.2281C17.5592 35.8883 17.4639 35.2983 17.3986 34.4228C17.3332 33.5466 17.3 32.4202 17.3 31.04V29.76C17.3 27.3745 17.7091 25.6736 18.4532 24.5815C19.1738 23.5238 20.2477 22.98 21.76 22.98H21.82V29.92C21.82 32.2769 21.4519 34.0775 20.7597 35.3629Z" stroke="#202020"/>
<path d="M58.384 40.64C56.5493 40.64 55.1627 40.1067 54.224 39.04C53.328 37.9307 52.88 36.608 52.88 35.072C52.88 33.4933 53.3493 32.1707 54.288 31.104C55.2693 30.0373 56.6347 29.504 58.384 29.504C60.1333 29.504 61.52 29.952 62.544 30.848C63.568 31.744 64.08 33.088 64.08 34.88C64.08 36.672 63.5893 38.08 62.608 39.104C61.6693 40.128 60.2613 40.64 58.384 40.64Z" fill="#202020"/>
</svg>
