<svg width="973" height="379" viewBox="0 0 973 379" fill="none" xmlns="http://www.w3.org/2000/svg">
<path d="M50.22 148.7V149.7H51.22V148.7H50.22ZM48.24 111.98L47.283 112.27L47.2883 112.288L47.2943 112.305L48.24 111.98ZM35.1 107.84L35.6408 108.681L35.6478 108.677L35.6547 108.672L35.1 107.84ZM33.66 118.46L32.717 118.793L32.9525 119.46H33.66V118.46ZM38.16 118.46L39.0945 118.104L38.8492 117.46H38.16V118.46ZM35.1 136.82L35.7432 137.586L35.752 137.578L35.7606 137.571L35.1 136.82ZM75.42 110.9L74.7465 111.639L74.7551 111.647L74.7638 111.655L75.42 110.9ZM96.12 164.9L96.1865 163.902L95.1803 163.835L95.1217 164.842L96.12 164.9ZM98.82 165.08L99.819 165.125L99.8634 164.147L98.8865 164.082L98.82 165.08ZM92.88 186.86L93.6312 187.52L93.6312 187.52L92.88 186.86ZM50.94 179.48L51.9117 179.244L51.1023 175.916L49.9938 179.156L50.94 179.48ZM43.92 189.56L44.4892 190.382L44.4892 190.382L43.92 189.56ZM13.68 153.56L14.1011 154.467L14.1081 154.464L13.68 153.56ZM38.7 182.9L37.7513 183.216L37.7606 183.244L37.7715 183.271L38.7 182.9ZM47.7 181.1L46.8195 180.626L46.8161 180.632L46.8128 180.639L47.7 181.1ZM50.22 151.58H51.22V150.58H50.22V151.58ZM45 149.7H50.22V147.7H45V149.7ZM51.22 148.7V134.84H49.22V148.7H51.22ZM51.22 134.84C51.22 123.462 50.5682 115.677 49.1857 111.655L47.2943 112.305C48.5518 115.963 49.22 123.418 49.22 134.84H51.22ZM49.197 111.69C48.5584 109.582 47.571 107.904 46.1764 106.754C44.7697 105.593 43.0338 105.04 41.04 105.04V107.04C42.6462 107.04 43.9103 107.477 44.9036 108.296C45.909 109.126 46.7216 110.418 47.283 112.27L49.197 111.69ZM41.04 105.04C38.6823 105.04 36.5093 105.699 34.5453 107.008L35.6547 108.672C37.2907 107.581 39.0778 107.04 41.04 107.04V105.04ZM34.5592 106.999C32.5857 108.268 31.58 110.149 31.58 112.52H33.58C33.58 110.811 34.2543 109.572 35.6408 108.681L34.5592 106.999ZM31.58 112.52C31.58 114.567 31.964 116.659 32.717 118.793L34.603 118.127C33.916 116.181 33.58 114.313 33.58 112.52H31.58ZM33.66 119.46H38.16V117.46H33.66V119.46ZM37.2255 118.816C38.1304 121.191 38.6 124.123 38.6 127.64H40.6C40.6 123.957 40.1096 120.769 39.0945 118.104L37.2255 118.816ZM38.6 127.64C38.6 130.789 37.2591 133.588 34.4394 136.069L35.7606 137.571C38.9409 134.772 40.6 131.451 40.6 127.64H38.6ZM34.4568 136.054C31.6658 138.399 28.1253 139.6 23.76 139.6V141.6C28.5147 141.6 32.5342 140.281 35.7432 137.586L34.4568 136.054ZM23.76 139.6C18.7454 139.6 15.1698 138.39 12.8444 136.145C10.5257 133.908 9.28 130.477 9.28 125.66H7.28C7.28 130.803 8.61425 134.842 11.4556 137.585C14.2903 140.32 18.4546 141.6 23.76 141.6V139.6ZM9.28 125.66C9.28 118.628 12.2329 113.424 18.1922 109.917C24.2339 106.361 33.4254 104.52 45.9 104.52V102.52C33.2946 102.52 23.6761 104.369 17.1778 108.193C10.5971 112.066 7.28 117.932 7.28 125.66H9.28ZM45.9 104.52C60.137 104.52 69.6408 106.987 74.7465 111.639L76.0935 110.161C70.3992 104.973 60.2231 102.52 45.9 102.52V104.52ZM74.7638 111.655C79.9456 116.16 82.7 124.659 82.7 137.54H84.7C84.7 124.501 81.9344 115.24 76.0762 110.145L74.7638 111.655ZM82.7 137.54V174.08H84.7V137.54H82.7ZM82.7 174.08C82.7 177.26 83.1377 179.805 84.1316 181.587C84.637 182.493 85.2956 183.219 86.1232 183.713C86.9521 184.209 87.8959 184.44 88.92 184.44V182.44C88.2041 182.44 87.6254 182.281 87.1493 181.997C86.6719 181.711 86.243 181.267 85.8784 180.613C85.1323 179.275 84.7 177.14 84.7 174.08H82.7ZM88.92 184.44C91.6017 184.44 93.468 182.371 94.7122 179.167C95.9697 175.929 96.7565 171.168 97.1183 164.958L95.1217 164.842C94.7635 170.992 93.9903 175.501 92.8478 178.443C91.692 181.419 90.3183 182.44 88.92 182.44V184.44ZM96.0535 165.898L98.7535 166.078L98.8865 164.082L96.1865 163.902L96.0535 165.898ZM97.821 165.035C97.3426 175.56 95.3681 182.514 92.1288 186.2L93.6312 187.52C97.3519 183.286 99.3374 175.72 99.819 165.125L97.821 165.035ZM92.1288 186.2C88.9173 189.854 83.558 191.8 75.78 191.8V193.8C83.842 193.8 89.8827 191.786 93.6312 187.52L92.1288 186.2ZM75.78 191.8C68.6648 191.8 63.1801 190.7 59.2426 188.589C55.345 186.499 52.9224 183.399 51.9117 179.244L49.9683 179.716C51.1176 184.441 53.915 188.001 58.2974 190.351C62.64 192.68 68.4953 193.8 75.78 193.8V191.8ZM49.9938 179.156C48.4842 183.569 46.2527 186.729 43.3508 188.738L44.4892 190.382C47.8273 188.071 50.2758 184.511 51.8862 179.804L49.9938 179.156ZM43.3508 188.738C40.4695 190.733 36.1456 191.8 30.24 191.8V193.8C36.3344 193.8 41.1305 192.707 44.4892 190.382L43.3508 188.738ZM30.24 191.8C21.4707 191.8 15.0795 190.004 10.893 186.581C6.745 183.19 4.6 178.067 4.6 171.02H2.6C2.6 178.493 4.895 184.26 9.62705 188.129C14.3205 191.966 21.2493 193.8 30.24 193.8V191.8ZM4.6 171.02C4.6 166.889 5.41434 163.487 6.98604 160.765C8.55263 158.051 10.9077 155.95 14.1011 154.467L13.2589 152.653C9.73226 154.29 7.04737 156.659 5.25396 159.765C3.46566 162.863 2.6 166.631 2.6 171.02H4.6ZM14.1081 154.464C20.7437 151.321 31.0025 149.7 45 149.7V147.7C30.9175 147.7 20.2963 149.319 13.2519 152.656L14.1081 154.464ZM36.8 170.84C36.8 173.973 36.8752 176.565 37.0278 178.609C37.1786 180.631 37.4097 182.191 37.7513 183.216L39.6487 182.584C39.3904 181.809 39.1714 180.459 39.0222 178.461C38.8748 176.485 38.8 173.947 38.8 170.84H36.8ZM37.7715 183.271C38.1847 184.304 38.7831 185.153 39.6038 185.739C40.4298 186.329 41.4065 186.6 42.48 186.6V184.6C41.7535 184.6 41.2002 184.421 40.7662 184.111C40.3269 183.797 39.9353 183.296 39.6285 182.529L37.7715 183.271ZM42.48 186.6C44.9953 186.6 46.9901 184.633 48.5872 181.561L46.8128 180.639C45.2899 183.567 43.8047 184.6 42.48 184.6V186.6ZM48.5805 181.574C50.3695 178.252 51.22 173.806 51.22 168.32H49.22C49.22 173.634 48.3905 177.708 46.8195 180.626L48.5805 181.574ZM51.22 168.32V151.58H49.22V168.32H51.22ZM50.22 150.58H48.96V152.58H50.22V150.58ZM48.96 150.58C44.9579 150.58 41.8357 152.071 39.7636 155.112C37.7384 158.084 36.8 162.418 36.8 167.96H38.8C38.8 162.582 39.7216 158.726 41.4164 156.238C43.0643 153.819 45.5221 152.58 48.96 152.58V150.58ZM36.8 167.96V170.84H38.8V167.96H36.8ZM103.469 56V55H102.469V56H103.469ZM147.569 56H148.569V55H147.569V56ZM147.569 187.76H146.569V188.76H147.569V187.76ZM157.649 187.76H158.649V186.76H157.649V187.76ZM157.649 191V192H158.649V191H157.649ZM104.189 191H103.189V192H104.189V191ZM104.189 187.76V186.76H103.189V187.76H104.189ZM114.089 187.76V188.76H115.089V187.76H114.089ZM114.089 59.24H115.089V58.24H114.089V59.24ZM103.469 59.24H102.469V60.24H103.469V59.24ZM103.469 57H147.569V55H103.469V57ZM146.569 56V187.76H148.569V56H146.569ZM147.569 188.76H157.649V186.76H147.569V188.76ZM156.649 187.76V191H158.649V187.76H156.649ZM157.649 190H104.189V192H157.649V190ZM105.189 191V187.76H103.189V191H105.189ZM104.189 188.76H114.089V186.76H104.189V188.76ZM115.089 187.76V59.24H113.089V187.76H115.089ZM114.089 58.24H103.469V60.24H114.089V58.24ZM104.469 59.24V56H102.469V59.24H104.469ZM177.162 180.92L176.439 181.611L176.444 181.616L176.45 181.622L177.162 180.92ZM178.602 114.86L177.949 114.103L177.944 114.107L178.602 114.86ZM251.142 144.56V145.56H252.103L252.141 144.599L251.142 144.56ZM200.382 144.56V143.56H199.382V144.56H200.382ZM204.882 178.22L203.988 178.667L203.988 178.667L204.882 178.22ZM247.902 164.9L248.067 163.914L247.19 163.767L246.942 164.621L247.902 164.9ZM251.142 165.44L252.109 165.695L252.389 164.634L251.307 164.454L251.142 165.44ZM238.722 185.6L238.097 184.819L238.09 184.825L238.722 185.6ZM200.562 140.96H199.562V141.96H200.562V140.96ZM219.102 140.96V141.96H220.102V140.96H219.102ZM217.302 112.34L216.344 112.627L216.35 112.647L216.357 112.666L217.302 112.34ZM202.902 112.7L201.986 112.299L201.983 112.306L201.98 112.313L202.902 112.7ZM212.082 191.8C196.763 191.8 185.423 187.883 177.875 180.218L176.45 181.622C184.501 189.797 196.442 193.8 212.082 193.8V191.8ZM177.885 180.229C170.428 172.422 166.642 161.596 166.642 147.62H164.642C164.642 161.964 168.536 173.338 176.439 181.611L177.885 180.229ZM166.642 147.62C166.642 133.552 170.889 122.938 179.261 115.613L177.944 114.107C169.035 121.902 164.642 133.128 164.642 147.62H166.642ZM179.256 115.617C187.805 108.239 198.661 104.52 211.902 104.52V102.52C198.263 102.52 186.919 106.361 177.949 114.103L179.256 115.617ZM211.902 104.52C225.37 104.52 235.138 107.902 241.419 114.471C247.702 121.042 250.677 130.99 250.143 144.521L252.141 144.599C252.687 130.77 249.663 120.198 242.865 113.089C236.066 105.978 225.674 102.52 211.902 102.52V104.52ZM251.142 143.56H200.382V145.56H251.142V143.56ZM199.382 144.56V151.58H201.382V144.56H199.382ZM199.382 151.58C199.382 163.395 200.884 172.46 203.988 178.667L205.777 177.773C202.88 171.98 201.382 163.285 201.382 151.58H199.382ZM203.988 178.667C205.565 181.822 207.749 184.228 210.549 185.837C213.342 187.442 216.688 188.22 220.542 188.22V186.22C216.956 186.22 213.972 185.498 211.545 184.103C209.125 182.712 207.199 180.618 205.777 177.773L203.988 178.667ZM220.542 188.22C227.689 188.22 233.685 186.306 238.454 182.415C243.214 178.532 246.664 172.753 248.863 165.179L246.942 164.621C244.821 171.927 241.55 177.308 237.19 180.865C232.84 184.414 227.316 186.22 220.542 186.22V188.22ZM247.738 165.886L250.978 166.426L251.307 164.454L248.067 163.914L247.738 165.886ZM250.175 165.185C247.941 173.652 243.904 180.174 238.097 184.819L239.347 186.381C245.541 181.426 249.784 174.508 252.109 165.695L250.175 165.185ZM238.09 184.825C232.465 189.417 223.855 191.8 212.082 191.8V193.8C224.07 193.8 233.22 191.383 239.355 186.375L238.09 184.825ZM200.562 141.96H219.102V139.96H200.562V141.96ZM220.102 140.96V132.14H218.102V140.96H220.102ZM220.102 132.14C220.102 122.434 219.509 115.673 218.248 112.014L216.357 112.666C217.495 115.967 218.102 122.406 218.102 132.14H220.102ZM218.26 112.053C217.678 110.114 216.744 108.565 215.402 107.505C214.052 106.44 212.381 105.94 210.462 105.94V107.94C212.023 107.94 213.232 108.34 214.163 109.075C215.1 109.815 215.846 110.966 216.344 112.627L218.26 112.053ZM210.462 105.94C208.577 105.94 206.891 106.484 205.446 107.585C204.014 108.676 202.873 110.272 201.986 112.299L203.818 113.101C204.611 111.288 205.57 110.004 206.658 109.175C207.733 108.356 208.987 107.94 210.462 107.94V105.94ZM201.98 112.313C200.335 116.235 199.562 122.895 199.562 132.14H201.562C201.562 122.905 202.349 116.605 203.824 113.087L201.98 112.313ZM199.562 132.14V140.96H201.562V132.14H199.562ZM320.015 191H319.015V192H320.015V191ZM320.015 187.76V186.76H319.015V187.76H320.015ZM328.295 187.76V188.76H329.894L329.194 187.322L328.295 187.76ZM307.955 146L308.854 145.562L308.494 144.824L307.7 145.033L307.955 146ZM304.535 146.9L304.28 145.933L303.535 146.129V146.9H304.535ZM304.535 187.76H303.535V188.76H304.535V187.76ZM312.815 187.76H313.815V186.76H312.815V187.76ZM312.815 191V192H313.815V191H312.815ZM261.155 191H260.155V192H261.155V191ZM261.155 187.76V186.76H260.155V187.76H261.155ZM271.055 187.76V188.76H272.055V187.76H271.055ZM271.055 59.24H272.055V58.24H271.055V59.24ZM260.435 59.24H259.435V60.24H260.435V59.24ZM260.435 56V55H259.435V56H260.435ZM304.535 56H305.535V55H304.535V56ZM304.535 143.3H303.535V144.743L304.886 144.236L304.535 143.3ZM307.415 142.22L307.766 143.156L307.924 143.097L308.054 142.989L307.415 142.22ZM347.915 108.56L348.554 109.329L350.682 107.56H347.915V108.56ZM330.995 108.56H329.995V109.56H330.995V108.56ZM330.995 105.32V104.32H329.995V105.32H330.995ZM366.455 105.32H367.455V104.32H366.455V105.32ZM366.455 108.56V109.56H367.455V108.56H366.455ZM353.855 108.56V107.56H353.488L353.208 107.798L353.855 108.56ZM332.435 126.74L331.788 125.978L331.184 126.49L331.544 127.195L332.435 126.74ZM363.575 187.76L362.684 188.215L362.962 188.76H363.575V187.76ZM370.055 187.76H371.055V186.76H370.055V187.76ZM370.055 191V192H371.055V191H370.055ZM321.015 191V187.76H319.015V191H321.015ZM320.015 188.76H328.295V186.76H320.015V188.76ZM329.194 187.322L308.854 145.562L307.056 146.438L327.396 188.198L329.194 187.322ZM307.7 145.033L304.28 145.933L304.789 147.867L308.209 146.967L307.7 145.033ZM303.535 146.9V187.76H305.535V146.9H303.535ZM304.535 188.76H312.815V186.76H304.535V188.76ZM311.815 187.76V191H313.815V187.76H311.815ZM312.815 190H261.155V192H312.815V190ZM262.155 191V187.76H260.155V191H262.155ZM261.155 188.76H271.055V186.76H261.155V188.76ZM272.055 187.76V59.24H270.055V187.76H272.055ZM271.055 58.24H260.435V60.24H271.055V58.24ZM261.435 59.24V56H259.435V59.24H261.435ZM260.435 57H304.535V55H260.435V57ZM303.535 56V143.3H305.535V56H303.535ZM304.886 144.236L307.766 143.156L307.064 141.284L304.184 142.364L304.886 144.236ZM308.054 142.989L348.554 109.329L347.276 107.791L306.776 141.451L308.054 142.989ZM347.915 107.56H330.995V109.56H347.915V107.56ZM331.995 108.56V105.32H329.995V108.56H331.995ZM330.995 106.32H366.455V104.32H330.995V106.32ZM365.455 105.32V108.56H367.455V105.32H365.455ZM366.455 107.56H353.855V109.56H366.455V107.56ZM353.208 107.798L331.788 125.978L333.082 127.502L354.502 109.322L353.208 107.798ZM331.544 127.195L362.684 188.215L364.465 187.305L333.325 126.285L331.544 127.195ZM363.575 188.76H370.055V186.76H363.575V188.76ZM369.055 187.76V191H371.055V187.76H369.055ZM370.055 190H320.015V192H370.055V190ZM380.516 192.8H379.516V193.8H380.516V192.8ZM380.516 160.58V159.58H379.516V160.58H380.516ZM382.676 160.58L383.634 160.294L383.421 159.58H382.676V160.58ZM395.276 182.54L394.653 183.323L394.653 183.323L395.276 182.54ZM428.936 169.58L428.444 170.451L428.447 170.453L428.936 169.58ZM410.936 163.46L410.68 164.427L410.711 164.435L410.743 164.441L410.936 163.46ZM390.416 154.82L389.868 155.657L389.87 155.658L390.416 154.82ZM389.156 111.98L389.848 112.702L389.855 112.695L389.156 111.98ZM430.376 107.66L429.971 108.575L429.979 108.578L429.988 108.582L430.376 107.66ZM441.716 103.16V102.16H441.112L440.831 102.694L441.716 103.16ZM443.696 103.16H444.696V102.16H443.696V103.16ZM443.696 130.7V131.7H444.696V130.7H443.696ZM441.536 130.7L440.605 131.065L440.854 131.7H441.536V130.7ZM400.496 110.36L401.067 111.181L401.079 111.173L401.09 111.164L400.496 110.36ZM397.616 122.06L396.826 122.674L396.844 122.697L396.863 122.719L397.616 122.06ZM399.596 124.22L400.303 123.513L400.303 123.513L399.596 124.22ZM401.936 125.84L401.45 126.714L401.489 126.736L401.53 126.754L401.936 125.84ZM404.636 127.1L404.189 127.994L404.252 128.026L404.32 128.049L404.636 127.1ZM407.876 128.18L407.56 129.129L407.571 129.132L407.582 129.136L407.876 128.18ZM411.296 129.08L411.538 128.11L411.5 128.1L411.46 128.094L411.296 129.08ZM428.936 134.48L428.538 135.398L428.551 135.403L428.564 135.408L428.936 134.48ZM439.196 139.88L439.764 139.057L439.757 139.053L439.75 139.048L439.196 139.88ZM440.096 185.06L440.748 185.818L440.756 185.811L440.096 185.06ZM393.836 187.58L393.281 188.412L393.333 188.447L393.389 188.474L393.836 187.58ZM382.676 192.8V193.8H383.258L383.545 193.294L382.676 192.8ZM381.516 192.8V160.58H379.516V192.8H381.516ZM380.516 161.58H382.676V159.58H380.516V161.58ZM381.718 160.866C384.863 171.392 389.142 178.939 394.653 183.323L395.898 181.757C390.849 177.741 386.728 170.648 383.634 160.294L381.718 160.866ZM394.653 183.323C400.14 187.687 406.971 189.84 415.076 189.84V187.84C407.341 187.84 400.972 185.793 395.898 181.757L394.653 183.323ZM415.076 189.84C421.27 189.84 426.087 188.859 429.383 186.758C432.756 184.609 434.436 181.351 434.436 177.14H432.436C432.436 180.729 431.055 183.321 428.308 185.072C425.485 186.871 421.122 187.84 415.076 187.84V189.84ZM434.436 177.14C434.436 175.307 434.025 173.655 433.17 172.219C432.316 170.784 431.051 169.618 429.424 168.707L428.447 170.453C429.821 171.222 430.806 172.156 431.451 173.241C432.097 174.325 432.436 175.613 432.436 177.14H434.436ZM429.427 168.709C424.626 166.001 418.516 163.932 411.129 162.479L410.743 164.441C417.996 165.868 423.886 167.879 428.444 170.451L429.427 168.709ZM411.192 162.493C403.107 160.353 396.372 157.51 390.962 153.982L389.87 155.658C395.5 159.33 402.444 162.247 410.68 164.427L411.192 162.493ZM390.963 153.983C384.702 149.885 381.516 143.395 381.516 134.3H379.516C379.516 143.925 382.93 151.115 389.868 155.657L390.963 153.983ZM381.516 134.3C381.516 125.161 384.319 118.001 389.848 112.702L388.464 111.258C382.473 116.999 379.516 124.719 379.516 134.3H381.516ZM389.855 112.695C395.394 107.272 402.804 104.52 412.196 104.52V102.52C402.388 102.52 394.438 105.408 388.456 111.265L389.855 112.695ZM412.196 104.52C417.916 104.52 423.838 105.862 429.971 108.575L430.78 106.745C424.433 103.938 418.236 102.52 412.196 102.52V104.52ZM429.988 108.582C432.288 109.55 434.184 110.1 435.596 110.1V108.1C434.608 108.1 433.024 107.69 430.764 106.738L429.988 108.582ZM435.596 110.1C437.058 110.1 438.333 109.577 439.363 108.547L437.949 107.133C437.298 107.783 436.534 108.1 435.596 108.1V110.1ZM439.363 108.547C440.317 107.593 441.395 105.916 442.601 103.626L440.831 102.694C439.636 104.964 438.674 106.407 437.949 107.133L439.363 108.547ZM441.716 104.16H443.696V102.16H441.716V104.16ZM442.696 103.16V130.7H444.696V103.16H442.696ZM443.696 129.7H441.536V131.7H443.696V129.7ZM442.467 130.335C439.366 122.432 435.382 116.418 430.471 112.378C425.543 108.323 419.736 106.3 413.096 106.3V108.3C419.296 108.3 424.648 110.177 429.2 113.922C433.769 117.682 437.585 123.368 440.605 131.065L442.467 130.335ZM413.096 106.3C407.368 106.3 402.913 107.33 399.901 109.556L401.09 111.164C403.599 109.31 407.544 108.3 413.096 108.3V106.3ZM399.925 109.539C396.934 111.62 395.356 114.369 395.356 117.74H397.356C397.356 115.111 398.538 112.94 401.067 111.181L399.925 109.539ZM395.356 117.74C395.356 119.692 395.812 121.37 396.826 122.674L398.405 121.446C397.739 120.59 397.356 119.388 397.356 117.74H395.356ZM396.863 122.719C397.708 123.683 398.385 124.423 398.889 124.927L400.303 123.513C399.847 123.057 399.204 122.357 398.368 121.401L396.863 122.719ZM398.889 124.927C399.467 125.506 400.344 126.1 401.45 126.714L402.421 124.966C401.368 124.38 400.684 123.894 400.303 123.513L398.889 124.927ZM401.53 126.754C402.602 127.23 403.487 127.644 404.189 127.994L405.083 126.206C404.345 125.836 403.43 125.41 402.342 124.926L401.53 126.754ZM404.32 128.049C404.321 128.049 404.322 128.05 404.324 128.05C404.325 128.051 404.327 128.051 404.328 128.051C404.329 128.052 404.331 128.052 404.332 128.053C404.334 128.053 404.335 128.054 404.336 128.054C404.338 128.055 404.339 128.055 404.341 128.056C404.342 128.056 404.344 128.057 404.345 128.057C404.346 128.058 404.348 128.058 404.349 128.059C404.351 128.059 404.352 128.06 404.354 128.06C404.355 128.06 404.356 128.061 404.358 128.061C404.359 128.062 404.361 128.062 404.362 128.063C404.364 128.063 404.365 128.064 404.366 128.064C404.368 128.065 404.369 128.065 404.371 128.066C404.372 128.066 404.374 128.067 404.375 128.067C404.377 128.068 404.378 128.068 404.379 128.069C404.381 128.069 404.382 128.07 404.384 128.07C404.385 128.071 404.387 128.071 404.388 128.072C404.39 128.072 404.391 128.072 404.392 128.073C404.394 128.073 404.395 128.074 404.397 128.074C404.398 128.075 404.4 128.075 404.401 128.076C404.403 128.076 404.404 128.077 404.406 128.077C404.407 128.078 404.408 128.078 404.41 128.079C404.411 128.079 404.413 128.08 404.414 128.08C404.416 128.081 404.417 128.081 404.419 128.082C404.42 128.082 404.422 128.083 404.423 128.083C404.425 128.084 404.426 128.084 404.428 128.085C404.429 128.085 404.431 128.086 404.432 128.086C404.433 128.087 404.435 128.087 404.436 128.088C404.438 128.088 404.439 128.089 404.441 128.089C404.442 128.09 404.444 128.09 404.445 128.091C404.447 128.091 404.448 128.092 404.45 128.092C404.451 128.093 404.453 128.093 404.454 128.094C404.456 128.094 404.457 128.095 404.459 128.095C404.46 128.096 404.462 128.096 404.463 128.097C404.465 128.097 404.466 128.098 404.468 128.098C404.469 128.099 404.471 128.099 404.472 128.1C404.474 128.1 404.475 128.101 404.477 128.101C404.478 128.102 404.48 128.102 404.481 128.103C404.483 128.103 404.484 128.104 404.486 128.104C404.487 128.105 404.489 128.105 404.49 128.106C404.492 128.106 404.493 128.107 404.495 128.107C404.496 128.108 404.498 128.108 404.499 128.109C404.501 128.109 404.502 128.11 404.504 128.11C404.506 128.111 404.507 128.111 404.509 128.112C404.51 128.112 404.512 128.113 404.513 128.113C404.515 128.114 404.516 128.114 404.518 128.115C404.519 128.115 404.521 128.116 404.522 128.116C404.524 128.117 404.525 128.117 404.527 128.118C404.528 128.118 404.53 128.119 404.532 128.119C404.533 128.12 404.535 128.12 404.536 128.121C404.538 128.121 404.539 128.122 404.541 128.122C404.542 128.123 404.544 128.123 404.545 128.124C404.547 128.124 404.549 128.125 404.55 128.126C404.552 128.126 404.553 128.127 404.555 128.127C404.556 128.128 404.558 128.128 404.559 128.129C404.561 128.129 404.562 128.13 404.564 128.13C404.566 128.131 404.567 128.131 404.569 128.132C404.57 128.132 404.572 128.133 404.573 128.133C404.575 128.134 404.577 128.134 404.578 128.135C404.58 128.135 404.581 128.136 404.583 128.136C404.584 128.137 404.586 128.137 404.588 128.138C404.589 128.139 404.591 128.139 404.592 128.14C404.594 128.14 404.595 128.141 404.597 128.141C404.599 128.142 404.6 128.142 404.602 128.143C404.603 128.143 404.605 128.144 404.606 128.144C404.608 128.145 404.61 128.145 404.611 128.146C404.613 128.146 404.614 128.147 404.616 128.147C404.618 128.148 404.619 128.149 404.621 128.149C404.622 128.15 404.624 128.15 404.625 128.151C404.627 128.151 404.629 128.152 404.63 128.152C404.632 128.153 404.633 128.153 404.635 128.154C404.637 128.154 404.638 128.155 404.64 128.155C404.641 128.156 404.643 128.157 404.645 128.157C404.646 128.158 404.648 128.158 404.649 128.159C404.651 128.159 404.653 128.16 404.654 128.16C404.656 128.161 404.658 128.161 404.659 128.162C404.661 128.162 404.662 128.163 404.664 128.163C404.666 128.164 404.667 128.165 404.669 128.165C404.67 128.166 404.672 128.166 404.674 128.167C404.675 128.167 404.677 128.168 404.679 128.168C404.68 128.169 404.682 128.169 404.683 128.17C404.685 128.171 404.687 128.171 404.688 128.172C404.69 128.172 404.692 128.173 404.693 128.173C404.695 128.174 404.696 128.174 404.698 128.175C404.7 128.175 404.701 128.176 404.703 128.176C404.705 128.177 404.706 128.178 404.708 128.178C404.71 128.179 404.711 128.179 404.713 128.18C404.714 128.18 404.716 128.181 404.718 128.181C404.719 128.182 404.721 128.183 404.723 128.183C404.724 128.184 404.726 128.184 404.728 128.185C404.729 128.185 404.731 128.186 404.733 128.186C404.734 128.187 404.736 128.187 404.738 128.188C404.739 128.189 404.741 128.189 404.743 128.19C404.744 128.19 404.746 128.191 404.748 128.191C404.749 128.192 404.751 128.192 404.753 128.193C404.754 128.194 404.756 128.194 404.758 128.195C404.759 128.195 404.761 128.196 404.763 128.196C404.764 128.197 404.766 128.197 404.768 128.198C404.769 128.199 404.771 128.199 404.773 128.2C404.774 128.2 404.776 128.201 404.778 128.201C404.779 128.202 404.781 128.202 404.783 128.203C404.784 128.204 404.786 128.204 404.788 128.205C404.789 128.205 404.791 128.206 404.793 128.206C404.794 128.207 404.796 128.208 404.798 128.208C404.799 128.209 404.801 128.209 404.803 128.21C404.805 128.21 404.806 128.211 404.808 128.211C404.81 128.212 404.811 128.213 404.813 128.213C404.815 128.214 404.816 128.214 404.818 128.215C404.82 128.215 404.822 128.216 404.823 128.217C404.825 128.217 404.827 128.218 404.828 128.218C404.83 128.219 404.832 128.219 404.833 128.22C404.835 128.221 404.837 128.221 404.839 128.222C404.84 128.222 404.842 128.223 404.844 128.223C404.845 128.224 404.847 128.225 404.849 128.225C404.851 128.226 404.852 128.226 404.854 128.227C404.856 128.227 404.857 128.228 404.859 128.229C404.861 128.229 404.863 128.23 404.864 128.23C404.866 128.231 404.868 128.231 404.87 128.232C404.871 128.233 404.873 128.233 404.875 128.234C404.876 128.234 404.878 128.235 404.88 128.235C404.882 128.236 404.883 128.237 404.885 128.237C404.887 128.238 404.889 128.238 404.89 128.239C404.892 128.24 404.894 128.24 404.896 128.241C404.897 128.241 404.899 128.242 404.901 128.242C404.903 128.243 404.904 128.244 404.906 128.244C404.908 128.245 404.91 128.245 404.911 128.246C404.913 128.247 404.915 128.247 404.917 128.248C404.918 128.248 404.92 128.249 404.922 128.249C404.924 128.25 404.925 128.251 404.927 128.251C404.929 128.252 404.931 128.252 404.932 128.253C404.934 128.254 404.936 128.254 404.938 128.255C404.939 128.255 404.941 128.256 404.943 128.256C404.945 128.257 404.946 128.258 404.948 128.258C404.95 128.259 404.952 128.259 404.954 128.26C404.955 128.261 404.957 128.261 404.959 128.262C404.961 128.262 404.962 128.263 404.964 128.264C404.966 128.264 404.968 128.265 404.969 128.265C404.971 128.266 404.973 128.267 404.975 128.267C404.977 128.268 404.978 128.268 404.98 128.269C404.982 128.269 404.984 128.27 404.986 128.271C404.987 128.271 404.989 128.272 404.991 128.272C404.993 128.273 404.995 128.274 404.996 128.274C404.998 128.275 405 128.275 405.002 128.276C405.003 128.277 405.005 128.277 405.007 128.278C405.009 128.278 405.011 128.279 405.012 128.28C405.014 128.28 405.016 128.281 405.018 128.281C405.02 128.282 405.021 128.283 405.023 128.283C405.025 128.284 405.027 128.284 405.029 128.285C405.031 128.286 405.032 128.286 405.034 128.287C405.036 128.287 405.038 128.288 405.04 128.289C405.041 128.289 405.043 128.29 405.045 128.291C405.047 128.291 405.049 128.292 405.051 128.292C405.052 128.293 405.054 128.294 405.056 128.294C405.058 128.295 405.06 128.295 405.061 128.296C405.063 128.297 405.065 128.297 405.067 128.298C405.069 128.298 405.071 128.299 405.072 128.3C405.074 128.3 405.076 128.301 405.078 128.301C405.08 128.302 405.082 128.303 405.083 128.303C405.085 128.304 405.087 128.305 405.089 128.305C405.091 128.306 405.093 128.306 405.094 128.307C405.096 128.308 405.098 128.308 405.1 128.309C405.102 128.309 405.104 128.31 405.106 128.311C405.107 128.311 405.109 128.312 405.111 128.313C405.113 128.313 405.115 128.314 405.117 128.314C405.119 128.315 405.12 128.316 405.122 128.316C405.124 128.317 405.126 128.317 405.128 128.318C405.13 128.319 405.132 128.319 405.133 128.32C405.135 128.321 405.137 128.321 405.139 128.322C405.141 128.322 405.143 128.323 405.145 128.324C405.146 128.324 405.148 128.325 405.15 128.326C405.152 128.326 405.154 128.327 405.156 128.327C405.158 128.328 405.16 128.329 405.161 128.329C405.163 128.33 405.165 128.331 405.167 128.331C405.169 128.332 405.171 128.332 405.173 128.333C405.175 128.334 405.176 128.334 405.178 128.335C405.18 128.336 405.182 128.336 405.184 128.337C405.186 128.337 405.188 128.338 405.19 128.339C405.192 128.339 405.193 128.34 405.195 128.341C405.197 128.341 405.199 128.342 405.201 128.343C405.203 128.343 405.205 128.344 405.207 128.344C405.209 128.345 405.211 128.346 405.212 128.346C405.214 128.347 405.216 128.348 405.218 128.348C405.22 128.349 405.222 128.349 405.224 128.35C405.226 128.351 405.228 128.351 405.23 128.352C405.231 128.353 405.233 128.353 405.235 128.354C405.237 128.355 405.239 128.355 405.241 128.356C405.243 128.356 405.245 128.357 405.247 128.358C405.249 128.358 405.251 128.359 405.253 128.36C405.254 128.36 405.256 128.361 405.258 128.362C405.26 128.362 405.262 128.363 405.264 128.364C405.266 128.364 405.268 128.365 405.27 128.365C405.272 128.366 405.274 128.367 405.276 128.367C405.278 128.368 405.279 128.369 405.281 128.369C405.283 128.37 405.285 128.371 405.287 128.371C405.289 128.372 405.291 128.373 405.293 128.373C405.295 128.374 405.297 128.374 405.299 128.375C405.301 128.376 405.303 128.376 405.305 128.377C405.307 128.378 405.309 128.378 405.311 128.379C405.312 128.38 405.314 128.38 405.316 128.381C405.318 128.382 405.32 128.382 405.322 128.383C405.324 128.384 405.326 128.384 405.328 128.385C405.33 128.386 405.332 128.386 405.334 128.387C405.336 128.387 405.338 128.388 405.34 128.389C405.342 128.389 405.344 128.39 405.346 128.391C405.348 128.391 405.35 128.392 405.352 128.393C405.354 128.393 405.356 128.394 405.358 128.395C405.359 128.395 405.361 128.396 405.363 128.397C405.365 128.397 405.367 128.398 405.369 128.399C405.371 128.399 405.373 128.4 405.375 128.401C405.377 128.401 405.379 128.402 405.381 128.403C405.383 128.403 405.385 128.404 405.387 128.405C405.389 128.405 405.391 128.406 405.393 128.407C405.395 128.407 405.397 128.408 405.399 128.409C405.401 128.409 405.403 128.41 405.405 128.411C405.407 128.411 405.409 128.412 405.411 128.413C405.413 128.413 405.415 128.414 405.417 128.415C405.419 128.415 405.421 128.416 405.423 128.417C405.425 128.417 405.427 128.418 405.429 128.419C405.431 128.419 405.433 128.42 405.435 128.421C405.437 128.421 405.439 128.422 405.441 128.423C405.443 128.423 405.445 128.424 405.447 128.425C405.449 128.425 405.451 128.426 405.453 128.427C405.455 128.427 405.457 128.428 405.459 128.429C405.461 128.429 405.463 128.43 405.465 128.431C405.467 128.431 405.469 128.432 405.471 128.433C405.473 128.433 405.475 128.434 405.477 128.435C405.479 128.435 405.481 128.436 405.483 128.437C405.485 128.437 405.487 128.438 405.489 128.439C405.492 128.439 405.494 128.44 405.496 128.441C405.498 128.441 405.5 128.442 405.502 128.443C405.504 128.443 405.506 128.444 405.508 128.445C405.51 128.445 405.512 128.446 405.514 128.447C405.516 128.447 405.518 128.448 405.52 128.449C405.522 128.45 405.524 128.45 405.526 128.451C405.528 128.452 405.53 128.452 405.532 128.453C405.534 128.454 405.536 128.454 405.538 128.455C405.541 128.456 405.543 128.456 405.545 128.457C405.547 128.458 405.549 128.458 405.551 128.459C405.553 128.46 405.555 128.46 405.557 128.461C405.559 128.462 405.561 128.463 405.563 128.463C405.565 128.464 405.567 128.465 405.569 128.465C405.571 128.466 405.573 128.467 405.576 128.467C405.578 128.468 405.58 128.469 405.582 128.469C405.584 128.47 405.586 128.471 405.588 128.471C405.59 128.472 405.592 128.473 405.594 128.474C405.596 128.474 405.598 128.475 405.6 128.476C405.603 128.476 405.605 128.477 405.607 128.478C405.609 128.478 405.611 128.479 405.613 128.48C405.615 128.481 405.617 128.481 405.619 128.482C405.621 128.483 405.623 128.483 405.625 128.484C405.628 128.485 405.63 128.485 405.632 128.486C405.634 128.487 405.636 128.487 405.638 128.488C405.64 128.489 405.642 128.49 405.644 128.49C405.646 128.491 405.648 128.492 405.651 128.492C405.653 128.493 405.655 128.494 405.657 128.494C405.659 128.495 405.661 128.496 405.663 128.497C405.665 128.497 405.667 128.498 405.67 128.499C405.672 128.499 405.674 128.5 405.676 128.501C405.678 128.501 405.68 128.502 405.682 128.503C405.684 128.504 405.686 128.504 405.689 128.505C405.691 128.506 405.693 128.506 405.695 128.507C405.697 128.508 405.699 128.509 405.701 128.509C405.703 128.51 405.706 128.511 405.708 128.511C405.71 128.512 405.712 128.513 405.714 128.514C405.716 128.514 405.718 128.515 405.72 128.516C405.723 128.516 405.725 128.517 405.727 128.518C405.729 128.518 405.731 128.519 405.733 128.52C405.735 128.521 405.738 128.521 405.74 128.522C405.742 128.523 405.744 128.523 405.746 128.524C405.748 128.525 405.75 128.526 405.753 128.526C405.755 128.527 405.757 128.528 405.759 128.528C405.761 128.529 405.763 128.53 405.765 128.531C405.768 128.531 405.77 128.532 405.772 128.533C405.774 128.533 405.776 128.534 405.778 128.535C405.78 128.536 405.783 128.536 405.785 128.537C405.787 128.538 405.789 128.539 405.791 128.539C405.793 128.54 405.796 128.541 405.798 128.541C405.8 128.542 405.802 128.543 405.804 128.544C405.806 128.544 405.809 128.545 405.811 128.546C405.813 128.546 405.815 128.547 405.817 128.548C405.819 128.549 405.822 128.549 405.824 128.55C405.826 128.551 405.828 128.552 405.83 128.552C405.833 128.553 405.835 128.554 405.837 128.554C405.839 128.555 405.841 128.556 405.843 128.557C405.846 128.557 405.848 128.558 405.85 128.559C405.852 128.56 405.854 128.56 405.857 128.561C405.859 128.562 405.861 128.562 405.863 128.563C405.865 128.564 405.867 128.565 405.87 128.565C405.872 128.566 405.874 128.567 405.876 128.568C405.878 128.568 405.881 128.569 405.883 128.57C405.885 128.571 405.887 128.571 405.889 128.572C405.892 128.573 405.894 128.573 405.896 128.574C405.898 128.575 405.9 128.576 405.903 128.576C405.905 128.577 405.907 128.578 405.909 128.579C405.912 128.579 405.914 128.58 405.916 128.581C405.918 128.582 405.92 128.582 405.923 128.583C405.925 128.584 405.927 128.585 405.929 128.585C405.931 128.586 405.934 128.587 405.936 128.587C405.938 128.588 405.94 128.589 405.943 128.59C405.945 128.59 405.947 128.591 405.949 128.592C405.952 128.593 405.954 128.593 405.956 128.594C405.958 128.595 405.96 128.596 405.963 128.596C405.965 128.597 405.967 128.598 405.969 128.599C405.972 128.599 405.974 128.6 405.976 128.601C405.978 128.602 405.981 128.602 405.983 128.603C405.985 128.604 405.987 128.605 405.99 128.605C405.992 128.606 405.994 128.607 405.996 128.608C405.999 128.608 406.001 128.609 406.003 128.61C406.005 128.611 406.007 128.611 406.01 128.612C406.012 128.613 406.014 128.614 406.017 128.614C406.019 128.615 406.021 128.616 406.023 128.617C406.026 128.617 406.028 128.618 406.03 128.619C406.032 128.62 406.035 128.62 406.037 128.621C406.039 128.622 406.041 128.623 406.044 128.623C406.046 128.624 406.048 128.625 406.05 128.626C406.053 128.626 406.055 128.627 406.057 128.628C406.06 128.629 406.062 128.629 406.064 128.63C406.066 128.631 406.069 128.632 406.071 128.632C406.073 128.633 406.075 128.634 406.078 128.635C406.08 128.636 406.082 128.636 406.085 128.637C406.087 128.638 406.089 128.639 406.091 128.639C406.094 128.64 406.096 128.641 406.098 128.642C406.101 128.642 406.103 128.643 406.105 128.644C406.107 128.645 406.11 128.645 406.112 128.646C406.114 128.647 406.117 128.648 406.119 128.648C406.121 128.649 406.124 128.65 406.126 128.651C406.128 128.652 406.13 128.652 406.133 128.653C406.135 128.654 406.137 128.655 406.14 128.655C406.142 128.656 406.144 128.657 406.147 128.658C406.149 128.658 406.151 128.659 406.153 128.66C406.156 128.661 406.158 128.662 406.16 128.662C406.163 128.663 406.165 128.664 406.167 128.665C406.17 128.665 406.172 128.666 406.174 128.667C406.177 128.668 406.179 128.668 406.181 128.669C406.184 128.67 406.186 128.671 406.188 128.672C406.191 128.672 406.193 128.673 406.195 128.674C406.198 128.675 406.2 128.675 406.202 128.676C406.204 128.677 406.207 128.678 406.209 128.679C406.211 128.679 406.214 128.68 406.216 128.681C406.218 128.682 406.221 128.682 406.223 128.683C406.226 128.684 406.228 128.685 406.23 128.686C406.233 128.686 406.235 128.687 406.237 128.688C406.24 128.689 406.242 128.689 406.244 128.69C406.247 128.691 406.249 128.692 406.251 128.693C406.254 128.693 406.256 128.694 406.258 128.695C406.261 128.696 406.263 128.697 406.265 128.697C406.268 128.698 406.27 128.699 406.272 128.7C406.275 128.7 406.277 128.701 406.28 128.702C406.282 128.703 406.284 128.704 406.287 128.704C406.289 128.705 406.291 128.706 406.294 128.707C406.296 128.708 406.298 128.708 406.301 128.709C406.303 128.71 406.306 128.711 406.308 128.711C406.31 128.712 406.313 128.713 406.315 128.714C406.317 128.715 406.32 128.715 406.322 128.716C406.325 128.717 406.327 128.718 406.329 128.719C406.332 128.719 406.334 128.72 406.336 128.721C406.339 128.722 406.341 128.723 406.344 128.723C406.346 128.724 406.348 128.725 406.351 128.726C406.353 128.727 406.355 128.727 406.358 128.728C406.36 128.729 406.363 128.73 406.365 128.731C406.367 128.731 406.37 128.732 406.372 128.733C406.375 128.734 406.377 128.735 406.379 128.735C406.382 128.736 406.384 128.737 406.387 128.738C406.389 128.739 406.391 128.739 406.394 128.74C406.396 128.741 406.399 128.742 406.401 128.743C406.403 128.743 406.406 128.744 406.408 128.745C406.411 128.746 406.413 128.747 406.415 128.747C406.418 128.748 406.42 128.749 406.423 128.75C406.425 128.751 406.428 128.751 406.43 128.752C406.432 128.753 406.435 128.754 406.437 128.755C406.44 128.755 406.442 128.756 406.444 128.757C406.447 128.758 406.449 128.759 406.452 128.759C406.454 128.76 406.457 128.761 406.459 128.762C406.461 128.763 406.464 128.763 406.466 128.764C406.469 128.765 406.471 128.766 406.474 128.767C406.476 128.768 406.478 128.768 406.481 128.769C406.483 128.77 406.486 128.771 406.488 128.772C406.491 128.772 406.493 128.773 406.496 128.774C406.498 128.775 406.5 128.776 406.503 128.776C406.505 128.777 406.508 128.778 406.51 128.779C406.513 128.78 406.515 128.781 406.518 128.781C406.52 128.782 406.522 128.783 406.525 128.784C406.527 128.785 406.53 128.785 406.532 128.786C406.535 128.787 406.537 128.788 406.54 128.789C406.542 128.79 406.545 128.79 406.547 128.791C406.55 128.792 406.552 128.793 406.554 128.794C406.557 128.794 406.559 128.795 406.562 128.796C406.564 128.797 406.567 128.798 406.569 128.799C406.572 128.799 406.574 128.8 406.577 128.801C406.579 128.802 406.582 128.803 406.584 128.804C406.587 128.804 406.589 128.805 406.591 128.806C406.594 128.807 406.596 128.808 406.599 128.808C406.601 128.809 406.604 128.81 406.606 128.811C406.609 128.812 406.611 128.813 406.614 128.813C406.616 128.814 406.619 128.815 406.621 128.816C406.624 128.817 406.626 128.818 406.629 128.818C406.631 128.819 406.634 128.82 406.636 128.821C406.639 128.822 406.641 128.823 406.644 128.823C406.646 128.824 406.649 128.825 406.651 128.826C406.654 128.827 406.656 128.828 406.659 128.828C406.661 128.829 406.664 128.83 406.666 128.831C406.669 128.832 406.671 128.833 406.674 128.833C406.676 128.834 406.679 128.835 406.681 128.836C406.684 128.837 406.686 128.838 406.689 128.838C406.691 128.839 406.694 128.84 406.696 128.841C406.699 128.842 406.701 128.843 406.704 128.843C406.706 128.844 406.709 128.845 406.711 128.846C406.714 128.847 406.717 128.848 406.719 128.849C406.722 128.849 406.724 128.85 406.727 128.851C406.729 128.852 406.732 128.853 406.734 128.854C406.737 128.854 406.739 128.855 406.742 128.856C406.744 128.857 406.747 128.858 406.749 128.859C406.752 128.859 406.754 128.86 406.757 128.861C406.76 128.862 406.762 128.863 406.765 128.864C406.767 128.865 406.77 128.865 406.772 128.866C406.775 128.867 406.777 128.868 406.78 128.869C406.782 128.87 406.785 128.87 406.788 128.871C406.79 128.872 406.793 128.873 406.795 128.874C406.798 128.875 406.8 128.876 406.803 128.876C406.805 128.877 406.808 128.878 406.81 128.879C406.813 128.88 406.816 128.881 406.818 128.882C406.821 128.882 406.823 128.883 406.826 128.884C406.828 128.885 406.831 128.886 406.834 128.887C406.836 128.888 406.839 128.888 406.841 128.889C406.844 128.89 406.846 128.891 406.849 128.892C406.852 128.893 406.854 128.894 406.857 128.894C406.859 128.895 406.862 128.896 406.864 128.897C406.867 128.898 406.87 128.899 406.872 128.9C406.875 128.9 406.877 128.901 406.88 128.902C406.882 128.903 406.885 128.904 406.888 128.905C406.89 128.906 406.893 128.906 406.895 128.907C406.898 128.908 406.901 128.909 406.903 128.91C406.906 128.911 406.908 128.912 406.911 128.912C406.914 128.913 406.916 128.914 406.919 128.915C406.921 128.916 406.924 128.917 406.926 128.918C406.929 128.919 406.932 128.919 406.934 128.92C406.937 128.921 406.939 128.922 406.942 128.923C406.945 128.924 406.947 128.925 406.95 128.925C406.953 128.926 406.955 128.927 406.958 128.928C406.96 128.929 406.963 128.93 406.966 128.931C406.968 128.932 406.971 128.932 406.973 128.933C406.976 128.934 406.979 128.935 406.981 128.936C406.984 128.937 406.986 128.938 406.989 128.939C406.992 128.939 406.994 128.94 406.997 128.941C407 128.942 407.002 128.943 407.005 128.944C407.007 128.945 407.01 128.946 407.013 128.946C407.015 128.947 407.018 128.948 407.021 128.949C407.023 128.95 407.026 128.951 407.029 128.952C407.031 128.953 407.034 128.953 407.036 128.954C407.039 128.955 407.042 128.956 407.044 128.957C407.047 128.958 407.05 128.959 407.052 128.96C407.055 128.96 407.058 128.961 407.06 128.962C407.063 128.963 407.065 128.964 407.068 128.965C407.071 128.966 407.073 128.967 407.076 128.968C407.079 128.968 407.081 128.969 407.084 128.97C407.087 128.971 407.089 128.972 407.092 128.973C407.095 128.974 407.097 128.975 407.1 128.975C407.103 128.976 407.105 128.977 407.108 128.978C407.111 128.979 407.113 128.98 407.116 128.981C407.119 128.982 407.121 128.983 407.124 128.983C407.127 128.984 407.129 128.985 407.132 128.986C407.135 128.987 407.137 128.988 407.14 128.989C407.143 128.99 407.145 128.991 407.148 128.991C407.151 128.992 407.153 128.993 407.156 128.994C407.159 128.995 407.161 128.996 407.164 128.997C407.167 128.998 407.169 128.999 407.172 129C407.175 129 407.177 129.001 407.18 129.002C407.183 129.003 407.186 129.004 407.188 129.005C407.191 129.006 407.194 129.007 407.196 129.008C407.199 129.008 407.202 129.009 407.204 129.01C407.207 129.011 407.21 129.012 407.212 129.013C407.215 129.014 407.218 129.015 407.221 129.016C407.223 129.017 407.226 129.017 407.229 129.018C407.231 129.019 407.234 129.02 407.237 129.021C407.239 129.022 407.242 129.023 407.245 129.024C407.248 129.025 407.25 129.026 407.253 129.026C407.256 129.027 407.258 129.028 407.261 129.029C407.264 129.03 407.267 129.031 407.269 129.032C407.272 129.033 407.275 129.034 407.277 129.035C407.28 129.036 407.283 129.036 407.286 129.037C407.288 129.038 407.291 129.039 407.294 129.04C407.296 129.041 407.299 129.042 407.302 129.043C407.305 129.044 407.307 129.045 407.31 129.046C407.313 129.046 407.316 129.047 407.318 129.048C407.321 129.049 407.324 129.05 407.327 129.051C407.329 129.052 407.332 129.053 407.335 129.054C407.337 129.055 407.34 129.056 407.343 129.056C407.346 129.057 407.348 129.058 407.351 129.059C407.354 129.06 407.357 129.061 407.359 129.062C407.362 129.063 407.365 129.064 407.368 129.065C407.37 129.066 407.373 129.067 407.376 129.067C407.379 129.068 407.381 129.069 407.384 129.07C407.387 129.071 407.39 129.072 407.392 129.073C407.395 129.074 407.398 129.075 407.401 129.076C407.403 129.077 407.406 129.078 407.409 129.079C407.412 129.079 407.415 129.08 407.417 129.081C407.42 129.082 407.423 129.083 407.426 129.084C407.428 129.085 407.431 129.086 407.434 129.087C407.437 129.088 407.439 129.089 407.442 129.09C407.445 129.091 407.448 129.091 407.451 129.092C407.453 129.093 407.456 129.094 407.459 129.095C407.462 129.096 407.464 129.097 407.467 129.098C407.47 129.099 407.473 129.1 407.476 129.101C407.478 129.102 407.481 129.103 407.484 129.103C407.487 129.104 407.49 129.105 407.492 129.106C407.495 129.107 407.498 129.108 407.501 129.109C407.503 129.11 407.506 129.111 407.509 129.112C407.512 129.113 407.515 129.114 407.517 129.115C407.52 129.116 407.523 129.117 407.526 129.117C407.529 129.118 407.531 129.119 407.534 129.12C407.537 129.121 407.54 129.122 407.543 129.123C407.545 129.124 407.548 129.125 407.551 129.126C407.554 129.127 407.557 129.128 407.56 129.129L408.192 127.231C408.189 127.23 408.186 127.229 408.184 127.229C408.181 127.228 408.178 127.227 408.175 127.226C408.172 127.225 408.17 127.224 408.167 127.223C408.164 127.222 408.161 127.221 408.158 127.22C408.156 127.219 408.153 127.218 408.15 127.217C408.147 127.216 408.144 127.215 408.142 127.214C408.139 127.214 408.136 127.213 408.133 127.212C408.13 127.211 408.128 127.21 408.125 127.209C408.122 127.208 408.119 127.207 408.116 127.206C408.114 127.205 408.111 127.204 408.108 127.203C408.105 127.202 408.102 127.201 408.1 127.201C408.097 127.2 408.094 127.199 408.091 127.198C408.089 127.197 408.086 127.196 408.083 127.195C408.08 127.194 408.077 127.193 408.075 127.192C408.072 127.191 408.069 127.19 408.066 127.189C408.064 127.189 408.061 127.188 408.058 127.187C408.055 127.186 408.053 127.185 408.05 127.184C408.047 127.183 408.044 127.182 408.041 127.181C408.039 127.18 408.036 127.179 408.033 127.178C408.03 127.177 408.028 127.177 408.025 127.176C408.022 127.175 408.019 127.174 408.017 127.173C408.014 127.172 408.011 127.171 408.008 127.17C408.006 127.169 408.003 127.168 408 127.167C407.997 127.166 407.995 127.166 407.992 127.165C407.989 127.164 407.986 127.163 407.984 127.162C407.981 127.161 407.978 127.16 407.975 127.159C407.973 127.158 407.97 127.157 407.967 127.156C407.964 127.155 407.962 127.155 407.959 127.154C407.956 127.153 407.954 127.152 407.951 127.151C407.948 127.15 407.945 127.149 407.943 127.148C407.94 127.147 407.937 127.146 407.934 127.145C407.932 127.145 407.929 127.144 407.926 127.143C407.923 127.142 407.921 127.141 407.918 127.14C407.915 127.139 407.913 127.138 407.91 127.137C407.907 127.136 407.904 127.135 407.902 127.135C407.899 127.134 407.896 127.133 407.894 127.132C407.891 127.131 407.888 127.13 407.885 127.129C407.883 127.128 407.88 127.127 407.877 127.126C407.875 127.126 407.872 127.125 407.869 127.124C407.867 127.123 407.864 127.122 407.861 127.121C407.858 127.12 407.856 127.119 407.853 127.118C407.85 127.117 407.848 127.117 407.845 127.116C407.842 127.115 407.84 127.114 407.837 127.113C407.834 127.112 407.831 127.111 407.829 127.11C407.826 127.109 407.823 127.108 407.821 127.108C407.818 127.107 407.815 127.106 407.813 127.105C407.81 127.104 407.807 127.103 407.805 127.102C407.802 127.101 407.799 127.1 407.796 127.099C407.794 127.099 407.791 127.098 407.788 127.097C407.786 127.096 407.783 127.095 407.78 127.094C407.778 127.093 407.775 127.092 407.772 127.091C407.77 127.091 407.767 127.09 407.764 127.089C407.762 127.088 407.759 127.087 407.756 127.086C407.754 127.085 407.751 127.084 407.748 127.083C407.746 127.083 407.743 127.082 407.74 127.081C407.738 127.08 407.735 127.079 407.732 127.078C407.73 127.077 407.727 127.076 407.724 127.075C407.722 127.075 407.719 127.074 407.716 127.073C407.714 127.072 407.711 127.071 407.709 127.07C407.706 127.069 407.703 127.068 407.701 127.068C407.698 127.067 407.695 127.066 407.693 127.065C407.69 127.064 407.687 127.063 407.685 127.062C407.682 127.061 407.679 127.06 407.677 127.06C407.674 127.059 407.672 127.058 407.669 127.057C407.666 127.056 407.664 127.055 407.661 127.054C407.658 127.053 407.656 127.053 407.653 127.052C407.65 127.051 407.648 127.05 407.645 127.049C407.643 127.048 407.64 127.047 407.637 127.046C407.635 127.046 407.632 127.045 407.629 127.044C407.627 127.043 407.624 127.042 407.622 127.041C407.619 127.04 407.616 127.039 407.614 127.039C407.611 127.038 407.608 127.037 407.606 127.036C407.603 127.035 407.601 127.034 407.598 127.033C407.595 127.032 407.593 127.032 407.59 127.031C407.588 127.03 407.585 127.029 407.582 127.028C407.58 127.027 407.577 127.026 407.575 127.025C407.572 127.025 407.569 127.024 407.567 127.023C407.564 127.022 407.562 127.021 407.559 127.02C407.556 127.019 407.554 127.019 407.551 127.018C407.549 127.017 407.546 127.016 407.543 127.015C407.541 127.014 407.538 127.013 407.536 127.013C407.533 127.012 407.53 127.011 407.528 127.01C407.525 127.009 407.523 127.008 407.52 127.007C407.517 127.006 407.515 127.006 407.512 127.005C407.51 127.004 407.507 127.003 407.505 127.002C407.502 127.001 407.499 127 407.497 127C407.494 126.999 407.492 126.998 407.489 126.997C407.487 126.996 407.484 126.995 407.481 126.994C407.479 126.994 407.476 126.993 407.474 126.992C407.471 126.991 407.469 126.99 407.466 126.989C407.463 126.988 407.461 126.988 407.458 126.987C407.456 126.986 407.453 126.985 407.451 126.984C407.448 126.983 407.446 126.982 407.443 126.982C407.44 126.981 407.438 126.98 407.435 126.979C407.433 126.978 407.43 126.977 407.428 126.977C407.425 126.976 407.423 126.975 407.42 126.974C407.417 126.973 407.415 126.972 407.412 126.971C407.41 126.971 407.407 126.97 407.405 126.969C407.402 126.968 407.4 126.967 407.397 126.966C407.395 126.965 407.392 126.965 407.389 126.964C407.387 126.963 407.384 126.962 407.382 126.961C407.379 126.96 407.377 126.96 407.374 126.959C407.372 126.958 407.369 126.957 407.367 126.956C407.364 126.955 407.362 126.955 407.359 126.954C407.357 126.953 407.354 126.952 407.351 126.951C407.349 126.95 407.346 126.949 407.344 126.949C407.341 126.948 407.339 126.947 407.336 126.946C407.334 126.945 407.331 126.944 407.329 126.944C407.326 126.943 407.324 126.942 407.321 126.941C407.319 126.94 407.316 126.939 407.314 126.939C407.311 126.938 407.309 126.937 407.306 126.936C407.304 126.935 407.301 126.934 407.299 126.934C407.296 126.933 407.294 126.932 407.291 126.931C407.289 126.93 407.286 126.929 407.284 126.929C407.281 126.928 407.279 126.927 407.276 126.926C407.274 126.925 407.271 126.924 407.269 126.924C407.266 126.923 407.264 126.922 407.261 126.921C407.259 126.92 407.256 126.919 407.254 126.919C407.251 126.918 407.249 126.917 407.246 126.916C407.244 126.915 407.241 126.914 407.239 126.914C407.236 126.913 407.234 126.912 407.231 126.911C407.229 126.91 407.226 126.909 407.224 126.909C407.221 126.908 407.219 126.907 407.217 126.906C407.214 126.905 407.212 126.905 407.209 126.904C407.207 126.903 407.204 126.902 407.202 126.901C407.199 126.9 407.197 126.9 407.194 126.899C407.192 126.898 407.189 126.897 407.187 126.896C407.184 126.895 407.182 126.895 407.18 126.894C407.177 126.893 407.175 126.892 407.172 126.891C407.17 126.891 407.167 126.89 407.165 126.889C407.162 126.888 407.16 126.887 407.157 126.886C407.155 126.886 407.152 126.885 407.15 126.884C407.148 126.883 407.145 126.882 407.143 126.882C407.14 126.881 407.138 126.88 407.135 126.879C407.133 126.878 407.13 126.877 407.128 126.877C407.126 126.876 407.123 126.875 407.121 126.874C407.118 126.873 407.116 126.873 407.113 126.872C407.111 126.871 407.109 126.87 407.106 126.869C407.104 126.869 407.101 126.868 407.099 126.867C407.096 126.866 407.094 126.865 407.092 126.864C407.089 126.864 407.087 126.863 407.084 126.862C407.082 126.861 407.079 126.86 407.077 126.86C407.075 126.859 407.072 126.858 407.07 126.857C407.067 126.856 407.065 126.856 407.062 126.855C407.06 126.854 407.058 126.853 407.055 126.852C407.053 126.852 407.05 126.851 407.048 126.85C407.046 126.849 407.043 126.848 407.041 126.848C407.038 126.847 407.036 126.846 407.033 126.845C407.031 126.844 407.029 126.844 407.026 126.843C407.024 126.842 407.021 126.841 407.019 126.84C407.017 126.84 407.014 126.839 407.012 126.838C407.009 126.837 407.007 126.836 407.005 126.836C407.002 126.835 407 126.834 406.998 126.833C406.995 126.832 406.993 126.832 406.99 126.831C406.988 126.83 406.986 126.829 406.983 126.828C406.981 126.828 406.978 126.827 406.976 126.826C406.974 126.825 406.971 126.824 406.969 126.824C406.966 126.823 406.964 126.822 406.962 126.821C406.959 126.82 406.957 126.82 406.955 126.819C406.952 126.818 406.95 126.817 406.947 126.816C406.945 126.816 406.943 126.815 406.94 126.814C406.938 126.813 406.936 126.813 406.933 126.812C406.931 126.811 406.929 126.81 406.926 126.809C406.924 126.809 406.921 126.808 406.919 126.807C406.917 126.806 406.914 126.805 406.912 126.805C406.91 126.804 406.907 126.803 406.905 126.802C406.903 126.801 406.9 126.801 406.898 126.8C406.895 126.799 406.893 126.798 406.891 126.798C406.888 126.797 406.886 126.796 406.884 126.795C406.881 126.794 406.879 126.794 406.877 126.793C406.874 126.792 406.872 126.791 406.87 126.791C406.867 126.79 406.865 126.789 406.863 126.788C406.86 126.787 406.858 126.787 406.856 126.786C406.853 126.785 406.851 126.784 406.849 126.784C406.846 126.783 406.844 126.782 406.842 126.781C406.839 126.78 406.837 126.78 406.835 126.779C406.832 126.778 406.83 126.777 406.828 126.777C406.825 126.776 406.823 126.775 406.821 126.774C406.818 126.773 406.816 126.773 406.814 126.772C406.811 126.771 406.809 126.77 406.807 126.77C406.804 126.769 406.802 126.768 406.8 126.767C406.797 126.766 406.795 126.766 406.793 126.765C406.791 126.764 406.788 126.763 406.786 126.763C406.784 126.762 406.781 126.761 406.779 126.76C406.777 126.76 406.774 126.759 406.772 126.758C406.77 126.757 406.767 126.756 406.765 126.756C406.763 126.755 406.761 126.754 406.758 126.753C406.756 126.753 406.754 126.752 406.751 126.751C406.749 126.75 406.747 126.75 406.744 126.749C406.742 126.748 406.74 126.747 406.738 126.747C406.735 126.746 406.733 126.745 406.731 126.744C406.728 126.743 406.726 126.743 406.724 126.742C406.722 126.741 406.719 126.74 406.717 126.74C406.715 126.739 406.712 126.738 406.71 126.737C406.708 126.737 406.706 126.736 406.703 126.735C406.701 126.734 406.699 126.734 406.697 126.733C406.694 126.732 406.692 126.731 406.69 126.731C406.687 126.73 406.685 126.729 406.683 126.728C406.681 126.728 406.678 126.727 406.676 126.726C406.674 126.725 406.672 126.725 406.669 126.724C406.667 126.723 406.665 126.722 406.663 126.721C406.66 126.721 406.658 126.72 406.656 126.719C406.653 126.718 406.651 126.718 406.649 126.717C406.647 126.716 406.644 126.715 406.642 126.715C406.64 126.714 406.638 126.713 406.635 126.712C406.633 126.712 406.631 126.711 406.629 126.71C406.626 126.709 406.624 126.709 406.622 126.708C406.62 126.707 406.617 126.706 406.615 126.706C406.613 126.705 406.611 126.704 406.609 126.703C406.606 126.703 406.604 126.702 406.602 126.701C406.6 126.701 406.597 126.7 406.595 126.699C406.593 126.698 406.591 126.698 406.588 126.697C406.586 126.696 406.584 126.695 406.582 126.695C406.58 126.694 406.577 126.693 406.575 126.692C406.573 126.692 406.571 126.691 406.568 126.69C406.566 126.689 406.564 126.689 406.562 126.688C406.56 126.687 406.557 126.686 406.555 126.686C406.553 126.685 406.551 126.684 406.548 126.683C406.546 126.683 406.544 126.682 406.542 126.681C406.54 126.681 406.537 126.68 406.535 126.679C406.533 126.678 406.531 126.678 406.529 126.677C406.526 126.676 406.524 126.675 406.522 126.675C406.52 126.674 406.518 126.673 406.515 126.672C406.513 126.672 406.511 126.671 406.509 126.67C406.507 126.669 406.504 126.669 406.502 126.668C406.5 126.667 406.498 126.667 406.496 126.666C406.493 126.665 406.491 126.664 406.489 126.664C406.487 126.663 406.485 126.662 406.482 126.661C406.48 126.661 406.478 126.66 406.476 126.659C406.474 126.659 406.472 126.658 406.469 126.657C406.467 126.656 406.465 126.656 406.463 126.655C406.461 126.654 406.458 126.653 406.456 126.653C406.454 126.652 406.452 126.651 406.45 126.651C406.448 126.65 406.445 126.649 406.443 126.648C406.441 126.648 406.439 126.647 406.437 126.646C406.435 126.645 406.432 126.645 406.43 126.644C406.428 126.643 406.426 126.643 406.424 126.642C406.422 126.641 406.419 126.64 406.417 126.64C406.415 126.639 406.413 126.638 406.411 126.638C406.409 126.637 406.406 126.636 406.404 126.635C406.402 126.635 406.4 126.634 406.398 126.633C406.396 126.633 406.394 126.632 406.391 126.631C406.389 126.63 406.387 126.63 406.385 126.629C406.383 126.628 406.381 126.628 406.379 126.627C406.376 126.626 406.374 126.625 406.372 126.625C406.37 126.624 406.368 126.623 406.366 126.623C406.364 126.622 406.361 126.621 406.359 126.62C406.357 126.62 406.355 126.619 406.353 126.618C406.351 126.618 406.349 126.617 406.347 126.616C406.344 126.615 406.342 126.615 406.34 126.614C406.338 126.613 406.336 126.613 406.334 126.612C406.332 126.611 406.33 126.61 406.327 126.61C406.325 126.609 406.323 126.608 406.321 126.608C406.319 126.607 406.317 126.606 406.315 126.606C406.313 126.605 406.31 126.604 406.308 126.603C406.306 126.603 406.304 126.602 406.302 126.601C406.3 126.601 406.298 126.6 406.296 126.599C406.294 126.599 406.291 126.598 406.289 126.597C406.287 126.596 406.285 126.596 406.283 126.595C406.281 126.594 406.279 126.594 406.277 126.593C406.275 126.592 406.273 126.592 406.27 126.591C406.268 126.59 406.266 126.589 406.264 126.589C406.262 126.588 406.26 126.587 406.258 126.587C406.256 126.586 406.254 126.585 406.252 126.585C406.25 126.584 406.247 126.583 406.245 126.582C406.243 126.582 406.241 126.581 406.239 126.58C406.237 126.58 406.235 126.579 406.233 126.578C406.231 126.578 406.229 126.577 406.227 126.576C406.225 126.576 406.223 126.575 406.22 126.574C406.218 126.573 406.216 126.573 406.214 126.572C406.212 126.571 406.21 126.571 406.208 126.57C406.206 126.569 406.204 126.569 406.202 126.568C406.2 126.567 406.198 126.567 406.196 126.566C406.194 126.565 406.191 126.564 406.189 126.564C406.187 126.563 406.185 126.562 406.183 126.562C406.181 126.561 406.179 126.56 406.177 126.56C406.175 126.559 406.173 126.558 406.171 126.558C406.169 126.557 406.167 126.556 406.165 126.556C406.163 126.555 406.161 126.554 406.159 126.554C406.157 126.553 406.155 126.552 406.153 126.551C406.15 126.551 406.148 126.55 406.146 126.549C406.144 126.549 406.142 126.548 406.14 126.547C406.138 126.547 406.136 126.546 406.134 126.545C406.132 126.545 406.13 126.544 406.128 126.543C406.126 126.543 406.124 126.542 406.122 126.541C406.12 126.541 406.118 126.54 406.116 126.539C406.114 126.539 406.112 126.538 406.11 126.537C406.108 126.537 406.106 126.536 406.104 126.535C406.102 126.535 406.1 126.534 406.098 126.533C406.096 126.533 406.094 126.532 406.092 126.531C406.09 126.531 406.088 126.53 406.086 126.529C406.084 126.528 406.082 126.528 406.08 126.527C406.078 126.526 406.076 126.526 406.074 126.525C406.071 126.524 406.069 126.524 406.067 126.523C406.065 126.522 406.063 126.522 406.061 126.521C406.059 126.52 406.057 126.52 406.055 126.519C406.053 126.518 406.051 126.518 406.049 126.517C406.047 126.516 406.045 126.516 406.043 126.515C406.041 126.514 406.04 126.514 406.038 126.513C406.036 126.512 406.034 126.512 406.032 126.511C406.03 126.51 406.028 126.51 406.026 126.509C406.024 126.509 406.022 126.508 406.02 126.507C406.018 126.507 406.016 126.506 406.014 126.505C406.012 126.505 406.01 126.504 406.008 126.503C406.006 126.503 406.004 126.502 406.002 126.501C406 126.501 405.998 126.5 405.996 126.499C405.994 126.499 405.992 126.498 405.99 126.497C405.988 126.497 405.986 126.496 405.984 126.495C405.982 126.495 405.98 126.494 405.978 126.493C405.976 126.493 405.974 126.492 405.972 126.491C405.97 126.491 405.968 126.49 405.966 126.489C405.964 126.489 405.963 126.488 405.961 126.487C405.959 126.487 405.957 126.486 405.955 126.486C405.953 126.485 405.951 126.484 405.949 126.484C405.947 126.483 405.945 126.482 405.943 126.482C405.941 126.481 405.939 126.48 405.937 126.48C405.935 126.479 405.933 126.478 405.931 126.478C405.929 126.477 405.927 126.476 405.925 126.476C405.924 126.475 405.922 126.475 405.92 126.474C405.918 126.473 405.916 126.473 405.914 126.472C405.912 126.471 405.91 126.471 405.908 126.47C405.906 126.469 405.904 126.469 405.902 126.468C405.9 126.467 405.898 126.467 405.897 126.466C405.895 126.466 405.893 126.465 405.891 126.464C405.889 126.464 405.887 126.463 405.885 126.462C405.883 126.462 405.881 126.461 405.879 126.46C405.877 126.46 405.875 126.459 405.873 126.458C405.872 126.458 405.87 126.457 405.868 126.457C405.866 126.456 405.864 126.455 405.862 126.455C405.86 126.454 405.858 126.453 405.856 126.453C405.854 126.452 405.852 126.451 405.851 126.451C405.849 126.45 405.847 126.45 405.845 126.449C405.843 126.448 405.841 126.448 405.839 126.447C405.837 126.446 405.835 126.446 405.833 126.445C405.832 126.445 405.83 126.444 405.828 126.443C405.826 126.443 405.824 126.442 405.822 126.441C405.82 126.441 405.818 126.44 405.816 126.439C405.815 126.439 405.813 126.438 405.811 126.438C405.809 126.437 405.807 126.436 405.805 126.436C405.803 126.435 405.801 126.434 405.8 126.434C405.798 126.433 405.796 126.433 405.794 126.432C405.792 126.431 405.79 126.431 405.788 126.43C405.786 126.429 405.785 126.429 405.783 126.428C405.781 126.428 405.779 126.427 405.777 126.426C405.775 126.426 405.773 126.425 405.771 126.424C405.77 126.424 405.768 126.423 405.766 126.423C405.764 126.422 405.762 126.421 405.76 126.421C405.758 126.42 405.757 126.419 405.755 126.419C405.753 126.418 405.751 126.418 405.749 126.417C405.747 126.416 405.745 126.416 405.744 126.415C405.742 126.415 405.74 126.414 405.738 126.413C405.736 126.413 405.734 126.412 405.732 126.411C405.731 126.411 405.729 126.41 405.727 126.41C405.725 126.409 405.723 126.408 405.721 126.408C405.72 126.407 405.718 126.407 405.716 126.406C405.714 126.405 405.712 126.405 405.71 126.404C405.709 126.403 405.707 126.403 405.705 126.402C405.703 126.402 405.701 126.401 405.699 126.4C405.698 126.4 405.696 126.399 405.694 126.399C405.692 126.398 405.69 126.397 405.688 126.397C405.687 126.396 405.685 126.396 405.683 126.395C405.681 126.394 405.679 126.394 405.678 126.393C405.676 126.393 405.674 126.392 405.672 126.391C405.67 126.391 405.668 126.39 405.667 126.39C405.665 126.389 405.663 126.388 405.661 126.388C405.659 126.387 405.658 126.387 405.656 126.386C405.654 126.385 405.652 126.385 405.65 126.384C405.649 126.383 405.647 126.383 405.645 126.382C405.643 126.382 405.641 126.381 405.64 126.38C405.638 126.38 405.636 126.379 405.634 126.379C405.632 126.378 405.631 126.377 405.629 126.377C405.627 126.376 405.625 126.376 405.623 126.375C405.622 126.375 405.62 126.374 405.618 126.373C405.616 126.373 405.614 126.372 405.613 126.372C405.611 126.371 405.609 126.37 405.607 126.37C405.606 126.369 405.604 126.369 405.602 126.368C405.6 126.367 405.598 126.367 405.597 126.366C405.595 126.366 405.593 126.365 405.591 126.364C405.59 126.364 405.588 126.363 405.586 126.363C405.584 126.362 405.582 126.361 405.581 126.361C405.579 126.36 405.577 126.36 405.575 126.359C405.574 126.359 405.572 126.358 405.57 126.357C405.568 126.357 405.567 126.356 405.565 126.356C405.563 126.355 405.561 126.354 405.56 126.354C405.558 126.353 405.556 126.353 405.554 126.352C405.552 126.351 405.551 126.351 405.549 126.35C405.547 126.35 405.545 126.349 405.544 126.349C405.542 126.348 405.54 126.347 405.538 126.347C405.537 126.346 405.535 126.346 405.533 126.345C405.531 126.344 405.53 126.344 405.528 126.343C405.526 126.343 405.525 126.342 405.523 126.342C405.521 126.341 405.519 126.34 405.518 126.34C405.516 126.339 405.514 126.339 405.512 126.338C405.511 126.338 405.509 126.337 405.507 126.336C405.505 126.336 405.504 126.335 405.502 126.335C405.5 126.334 405.499 126.333 405.497 126.333C405.495 126.332 405.493 126.332 405.492 126.331C405.49 126.331 405.488 126.33 405.486 126.329C405.485 126.329 405.483 126.328 405.481 126.328C405.48 126.327 405.478 126.327 405.476 126.326C405.474 126.325 405.473 126.325 405.471 126.324C405.469 126.324 405.468 126.323 405.466 126.323C405.464 126.322 405.463 126.321 405.461 126.321C405.459 126.32 405.457 126.32 405.456 126.319C405.454 126.319 405.452 126.318 405.451 126.318C405.449 126.317 405.447 126.316 405.445 126.316C405.444 126.315 405.442 126.315 405.44 126.314C405.439 126.314 405.437 126.313 405.435 126.312C405.434 126.312 405.432 126.311 405.43 126.311C405.429 126.31 405.427 126.31 405.425 126.309C405.423 126.308 405.422 126.308 405.42 126.307C405.418 126.307 405.417 126.306 405.415 126.306C405.413 126.305 405.412 126.305 405.41 126.304C405.408 126.303 405.407 126.303 405.405 126.302C405.403 126.302 405.402 126.301 405.4 126.301C405.398 126.3 405.397 126.3 405.395 126.299C405.393 126.298 405.392 126.298 405.39 126.297C405.388 126.297 405.387 126.296 405.385 126.296C405.383 126.295 405.382 126.295 405.38 126.294C405.378 126.293 405.377 126.293 405.375 126.292C405.373 126.292 405.372 126.291 405.37 126.291C405.368 126.29 405.367 126.29 405.365 126.289C405.363 126.288 405.362 126.288 405.36 126.287C405.358 126.287 405.357 126.286 405.355 126.286C405.354 126.285 405.352 126.285 405.35 126.284C405.349 126.284 405.347 126.283 405.345 126.282C405.344 126.282 405.342 126.281 405.34 126.281C405.339 126.28 405.337 126.28 405.335 126.279C405.334 126.279 405.332 126.278 405.331 126.277C405.329 126.277 405.327 126.276 405.326 126.276C405.324 126.275 405.322 126.275 405.321 126.274C405.319 126.274 405.317 126.273 405.316 126.273C405.314 126.272 405.313 126.272 405.311 126.271C405.309 126.27 405.308 126.27 405.306 126.269C405.305 126.269 405.303 126.268 405.301 126.268C405.3 126.267 405.298 126.267 405.296 126.266C405.295 126.266 405.293 126.265 405.292 126.265C405.29 126.264 405.288 126.263 405.287 126.263C405.285 126.262 405.284 126.262 405.282 126.261C405.28 126.261 405.279 126.26 405.277 126.26C405.276 126.259 405.274 126.259 405.272 126.258C405.271 126.258 405.269 126.257 405.268 126.256C405.266 126.256 405.264 126.255 405.263 126.255C405.261 126.254 405.26 126.254 405.258 126.253C405.256 126.253 405.255 126.252 405.253 126.252C405.252 126.251 405.25 126.251 405.248 126.25C405.247 126.25 405.245 126.249 405.244 126.249C405.242 126.248 405.24 126.247 405.239 126.247C405.237 126.246 405.236 126.246 405.234 126.245C405.233 126.245 405.231 126.244 405.229 126.244C405.228 126.243 405.226 126.243 405.225 126.242C405.223 126.242 405.222 126.241 405.22 126.241C405.218 126.24 405.217 126.24 405.215 126.239C405.214 126.239 405.212 126.238 405.211 126.237C405.209 126.237 405.207 126.236 405.206 126.236C405.204 126.235 405.203 126.235 405.201 126.234C405.2 126.234 405.198 126.233 405.196 126.233C405.195 126.232 405.193 126.232 405.192 126.231C405.19 126.231 405.189 126.23 405.187 126.23C405.186 126.229 405.184 126.229 405.183 126.228C405.181 126.228 405.179 126.227 405.178 126.227C405.176 126.226 405.175 126.226 405.173 126.225C405.172 126.225 405.17 126.224 405.169 126.224C405.167 126.223 405.166 126.222 405.164 126.222C405.162 126.221 405.161 126.221 405.159 126.22C405.158 126.22 405.156 126.219 405.155 126.219C405.153 126.218 405.152 126.218 405.15 126.217C405.149 126.217 405.147 126.216 405.146 126.216C405.144 126.215 405.143 126.215 405.141 126.214C405.14 126.214 405.138 126.213 405.136 126.213C405.135 126.212 405.133 126.212 405.132 126.211C405.13 126.211 405.129 126.21 405.127 126.21C405.126 126.209 405.124 126.209 405.123 126.208C405.121 126.208 405.12 126.207 405.118 126.207C405.117 126.206 405.115 126.206 405.114 126.205C405.112 126.205 405.111 126.204 405.109 126.204C405.108 126.203 405.106 126.203 405.105 126.202C405.103 126.202 405.102 126.201 405.1 126.201C405.099 126.2 405.097 126.2 405.096 126.199C405.094 126.199 405.093 126.198 405.091 126.198C405.09 126.197 405.088 126.197 405.087 126.196C405.085 126.196 405.084 126.195 405.082 126.195C405.081 126.194 405.079 126.194 405.078 126.193C405.076 126.193 405.075 126.192 405.073 126.192C405.072 126.191 405.07 126.191 405.069 126.19C405.067 126.19 405.066 126.189 405.064 126.189C405.063 126.188 405.062 126.188 405.06 126.187C405.059 126.187 405.057 126.186 405.056 126.186C405.054 126.185 405.053 126.185 405.051 126.184C405.05 126.184 405.048 126.183 405.047 126.183C405.045 126.182 405.044 126.182 405.042 126.181C405.041 126.181 405.039 126.18 405.038 126.18C405.037 126.18 405.035 126.179 405.034 126.179C405.032 126.178 405.031 126.178 405.029 126.177C405.028 126.177 405.026 126.176 405.025 126.176C405.023 126.175 405.022 126.175 405.021 126.174C405.019 126.174 405.018 126.173 405.016 126.173C405.015 126.172 405.013 126.172 405.012 126.171C405.01 126.171 405.009 126.17 405.008 126.17C405.006 126.169 405.005 126.169 405.003 126.168C405.002 126.168 405 126.167 404.999 126.167C404.997 126.166 404.996 126.166 404.995 126.166C404.993 126.165 404.992 126.165 404.99 126.164C404.989 126.164 404.987 126.163 404.986 126.163C404.985 126.162 404.983 126.162 404.982 126.161C404.98 126.161 404.979 126.16 404.977 126.16C404.976 126.159 404.975 126.159 404.973 126.158C404.972 126.158 404.97 126.157 404.969 126.157C404.968 126.156 404.966 126.156 404.965 126.156C404.963 126.155 404.962 126.155 404.96 126.154C404.959 126.154 404.958 126.153 404.956 126.153C404.955 126.152 404.953 126.152 404.952 126.151L404.32 128.049ZM407.582 129.136C409.145 129.617 410.34 129.935 411.131 130.066L411.46 128.094C410.811 127.985 409.726 127.703 408.17 127.224L407.582 129.136ZM411.053 130.05C419.206 132.088 425.018 133.872 428.538 135.398L429.333 133.562C425.653 131.968 419.706 130.152 411.538 128.11L411.053 130.05ZM428.564 135.408C432.1 136.823 435.458 138.59 438.641 140.712L439.75 139.048C436.453 136.85 432.972 135.017 429.307 133.552L428.564 135.408ZM438.627 140.703C444.884 145.026 448.096 152.049 448.096 162.02H450.096C450.096 151.591 446.707 143.854 439.764 139.057L438.627 140.703ZM448.096 162.02C448.096 171.893 445.165 179.267 439.435 184.309L440.756 185.811C447.026 180.293 450.096 172.307 450.096 162.02H448.096ZM439.444 184.302C433.676 189.262 425.714 191.8 415.436 191.8V193.8C426.038 193.8 434.515 191.178 440.748 185.818L439.444 184.302ZM415.436 191.8C408.158 191.8 401.111 190.099 394.283 186.686L393.389 188.474C400.481 192.021 407.833 193.8 415.436 193.8V191.8ZM394.39 186.748C392.928 185.773 391.573 185.14 390.416 185.14V187.14C390.938 187.14 391.864 187.467 393.281 188.412L394.39 186.748ZM390.416 185.14C387.179 185.14 384.343 187.837 381.806 192.306L383.545 193.294C386.048 188.883 388.372 187.14 390.416 187.14V185.14ZM382.676 191.8H380.516V193.8H382.676V191.8ZM506.443 148.7V149.7H507.443V148.7H506.443ZM504.463 111.98L503.506 112.27L503.511 112.288L503.517 112.305L504.463 111.98ZM491.323 107.84L491.863 108.681L491.87 108.677L491.877 108.672L491.323 107.84ZM489.883 118.46L488.94 118.793L489.175 119.46H489.883V118.46ZM494.383 118.46L495.317 118.104L495.072 117.46H494.383V118.46ZM491.323 136.82L491.966 137.586L491.975 137.578L491.983 137.571L491.323 136.82ZM531.643 110.9L530.969 111.639L530.978 111.647L530.986 111.655L531.643 110.9ZM552.343 164.9L552.409 163.902L551.403 163.835L551.344 164.842L552.343 164.9ZM555.043 165.08L556.042 165.125L556.086 164.147L555.109 164.082L555.043 165.08ZM549.103 186.86L549.854 187.52L549.854 187.52L549.103 186.86ZM507.163 179.48L508.134 179.244L507.325 175.916L506.216 179.156L507.163 179.48ZM500.143 189.56L500.712 190.382L500.712 190.382L500.143 189.56ZM469.903 153.56L470.324 154.467L470.331 154.464L469.903 153.56ZM494.923 182.9L493.974 183.216L493.983 183.244L493.994 183.271L494.923 182.9ZM503.923 181.1L503.042 180.626L503.039 180.632L503.035 180.639L503.923 181.1ZM506.443 151.58H507.443V150.58H506.443V151.58ZM501.223 149.7H506.443V147.7H501.223V149.7ZM507.443 148.7V134.84H505.443V148.7H507.443ZM507.443 134.84C507.443 123.462 506.791 115.677 505.408 111.655L503.517 112.305C504.775 115.963 505.443 123.418 505.443 134.84H507.443ZM505.42 111.69C504.781 109.582 503.794 107.904 502.399 106.754C500.992 105.593 499.257 105.04 497.263 105.04V107.04C498.869 107.04 500.133 107.477 501.126 108.296C502.132 109.126 502.944 110.418 503.506 112.27L505.42 111.69ZM497.263 105.04C494.905 105.04 492.732 105.699 490.768 107.008L491.877 108.672C493.513 107.581 495.3 107.04 497.263 107.04V105.04ZM490.782 106.999C488.808 108.268 487.803 110.149 487.803 112.52H489.803C489.803 110.811 490.477 109.572 491.863 108.681L490.782 106.999ZM487.803 112.52C487.803 114.567 488.187 116.659 488.94 118.793L490.826 118.127C490.139 116.181 489.803 114.313 489.803 112.52H487.803ZM489.883 119.46H494.383V117.46H489.883V119.46ZM493.448 118.816C494.353 121.191 494.823 124.123 494.823 127.64H496.823C496.823 123.957 496.332 120.769 495.317 118.104L493.448 118.816ZM494.823 127.64C494.823 130.789 493.482 133.588 490.662 136.069L491.983 137.571C495.164 134.772 496.823 131.451 496.823 127.64H494.823ZM490.679 136.054C487.888 138.399 484.348 139.6 479.983 139.6V141.6C484.737 141.6 488.757 140.281 491.966 137.586L490.679 136.054ZM479.983 139.6C474.968 139.6 471.392 138.39 469.067 136.145C466.748 133.908 465.503 130.477 465.503 125.66H463.503C463.503 130.803 464.837 134.842 467.678 137.585C470.513 140.32 474.677 141.6 479.983 141.6V139.6ZM465.503 125.66C465.503 118.628 468.456 113.424 474.415 109.917C480.457 106.361 489.648 104.52 502.123 104.52V102.52C489.517 102.52 479.899 104.369 473.4 108.193C466.82 112.066 463.503 117.932 463.503 125.66H465.503ZM502.123 104.52C516.36 104.52 525.863 106.987 530.969 111.639L532.316 110.161C526.622 104.973 516.446 102.52 502.123 102.52V104.52ZM530.986 111.655C536.168 116.16 538.923 124.659 538.923 137.54H540.923C540.923 124.501 538.157 115.24 532.299 110.145L530.986 111.655ZM538.923 137.54V174.08H540.923V137.54H538.923ZM538.923 174.08C538.923 177.26 539.36 179.805 540.354 181.587C540.86 182.493 541.518 183.219 542.346 183.713C543.175 184.209 544.119 184.44 545.143 184.44V182.44C544.427 182.44 543.848 182.281 543.372 181.997C542.895 181.711 542.466 181.267 542.101 180.613C541.355 179.275 540.923 177.14 540.923 174.08H538.923ZM545.143 184.44C547.824 184.44 549.691 182.371 550.935 179.167C552.192 175.929 552.979 171.168 553.341 164.958L551.344 164.842C550.986 170.992 550.213 175.501 549.07 178.443C547.915 181.419 546.541 182.44 545.143 182.44V184.44ZM552.276 165.898L554.976 166.078L555.109 164.082L552.409 163.902L552.276 165.898ZM554.044 165.035C553.565 175.56 551.591 182.514 548.351 186.2L549.854 187.52C553.575 183.286 555.56 175.72 556.042 165.125L554.044 165.035ZM548.351 186.2C545.14 189.854 539.781 191.8 532.003 191.8V193.8C540.065 193.8 546.105 191.786 549.854 187.52L548.351 186.2ZM532.003 191.8C524.887 191.8 519.403 190.7 515.465 188.589C511.568 186.499 509.145 183.399 508.134 179.244L506.191 179.716C507.34 184.441 510.138 188.001 514.52 190.351C518.863 192.68 524.718 193.8 532.003 193.8V191.8ZM506.216 179.156C504.707 183.569 502.475 186.729 499.573 188.738L500.712 190.382C504.05 188.071 506.498 184.511 508.109 179.804L506.216 179.156ZM499.573 188.738C496.692 190.733 492.368 191.8 486.463 191.8V193.8C492.557 193.8 497.353 192.707 500.712 190.382L499.573 188.738ZM486.463 191.8C477.693 191.8 471.302 190.004 467.116 186.581C462.968 183.19 460.823 178.067 460.823 171.02H458.823C458.823 178.493 461.118 184.26 465.85 188.129C470.543 191.966 477.472 193.8 486.463 193.8V191.8ZM460.823 171.02C460.823 166.889 461.637 163.487 463.209 160.765C464.775 158.051 467.13 155.95 470.324 154.467L469.482 152.653C465.955 154.29 463.27 156.659 461.477 159.765C459.688 162.863 458.823 166.631 458.823 171.02H460.823ZM470.331 154.464C476.966 151.321 487.225 149.7 501.223 149.7V147.7C487.14 147.7 476.519 149.319 469.475 152.656L470.331 154.464ZM493.023 170.84C493.023 173.973 493.098 176.565 493.25 178.609C493.401 180.631 493.632 182.191 493.974 183.216L495.871 182.584C495.613 181.809 495.394 180.459 495.245 178.461C495.097 176.485 495.023 173.947 495.023 170.84H493.023ZM493.994 183.271C494.407 184.304 495.006 185.153 495.826 185.739C496.652 186.329 497.629 186.6 498.703 186.6V184.6C497.976 184.6 497.423 184.421 496.989 184.111C496.55 183.797 496.158 183.296 495.851 182.529L493.994 183.271ZM498.703 186.6C501.218 186.6 503.213 184.633 504.81 181.561L503.035 180.639C501.513 183.567 500.027 184.6 498.703 184.6V186.6ZM504.803 181.574C506.592 178.252 507.443 173.806 507.443 168.32H505.443C505.443 173.634 504.613 177.708 503.042 180.626L504.803 181.574ZM507.443 168.32V151.58H505.443V168.32H507.443ZM506.443 150.58H505.183V152.58H506.443V150.58ZM505.183 150.58C501.181 150.58 498.058 152.071 495.986 155.112C493.961 158.084 493.023 162.418 493.023 167.96H495.023C495.023 162.582 495.944 158.726 497.639 156.238C499.287 153.819 501.745 152.58 505.183 152.58V150.58ZM493.023 167.96V170.84H495.023V167.96H493.023ZM560.772 105.32V104.32H559.772V105.32H560.772ZM604.152 105.32H605.152V104.32H604.152V105.32ZM604.152 121.88H603.152L605.096 122.209L604.152 121.88ZM612.972 108.56L612.325 107.797L612.325 107.797L612.972 108.56ZM658.872 187.76H657.872V188.76H658.872V187.76ZM668.952 187.76H669.952V186.76H668.952V187.76ZM668.952 191V192H669.952V191H668.952ZM618.012 191H617.012V192H618.012V191ZM618.012 187.76V186.76H617.012V187.76H618.012ZM625.392 187.76V188.76H626.392V187.76H625.392ZM623.952 115.4L623.038 115.806L623.042 115.816L623.047 115.826L623.952 115.4ZM608.472 119.72L607.612 119.209L607.608 119.216L607.603 119.224L608.472 119.72ZM604.152 187.76H603.152V188.76H604.152V187.76ZM611.892 187.76H612.892V186.76H611.892V187.76ZM611.892 191V192H612.892V191H611.892ZM560.772 191H559.772V192H560.772V191ZM560.772 187.76V186.76H559.772V187.76H560.772ZM570.672 187.76V188.76H571.672V187.76H570.672ZM570.672 108.56H571.672V107.56H570.672V108.56ZM560.772 108.56H559.772V109.56H560.772V108.56ZM560.772 106.32H604.152V104.32H560.772V106.32ZM603.152 105.32V121.88H605.152V105.32H603.152ZM605.096 122.209C606.965 116.836 609.811 112.553 613.619 109.323L612.325 107.797C608.212 111.287 605.178 115.884 603.207 121.551L605.096 122.209ZM613.619 109.323C617.322 106.18 623.045 104.52 630.972 104.52V102.52C622.819 102.52 616.542 104.22 612.325 107.797L613.619 109.323ZM630.972 104.52C640.098 104.52 646.764 106.975 651.164 111.715C655.577 116.47 657.872 123.696 657.872 133.58H659.872C659.872 123.424 657.517 115.62 652.63 110.355C647.73 105.075 640.446 102.52 630.972 102.52V104.52ZM657.872 133.58V187.76H659.872V133.58H657.872ZM658.872 188.76H668.952V186.76H658.872V188.76ZM667.952 187.76V191H669.952V187.76H667.952ZM668.952 190H618.012V192H668.952V190ZM619.012 191V187.76H617.012V191H619.012ZM618.012 188.76H625.392V186.76H618.012V188.76ZM626.392 187.76V129.26H624.392V187.76H626.392ZM626.392 129.26C626.392 125.642 626.271 122.649 626.026 120.292C625.784 117.963 625.412 116.155 624.857 114.974L623.047 115.826C623.451 116.685 623.799 118.207 624.037 120.498C624.272 122.761 624.392 125.678 624.392 129.26H626.392ZM624.866 114.994C624.317 113.76 623.52 112.782 622.454 112.12C621.393 111.462 620.135 111.16 618.732 111.16V113.16C619.848 113.16 620.721 113.398 621.399 113.82C622.074 114.238 622.626 114.88 623.038 115.806L624.866 114.994ZM618.732 111.16C614.377 111.16 610.691 114.037 607.612 119.209L609.331 120.231C612.253 115.323 615.406 113.16 618.732 113.16V111.16ZM607.603 119.224C604.619 124.447 603.152 130.747 603.152 138.08H605.152C605.152 131.013 606.565 125.073 609.34 120.216L607.603 119.224ZM603.152 138.08V187.76H605.152V138.08H603.152ZM604.152 188.76H611.892V186.76H604.152V188.76ZM610.892 187.76V191H612.892V187.76H610.892ZM611.892 190H560.772V192H611.892V190ZM561.772 191V187.76H559.772V191H561.772ZM560.772 188.76H570.672V186.76H560.772V188.76ZM571.672 187.76V108.56H569.672V187.76H571.672ZM570.672 107.56H560.772V109.56H570.672V107.56ZM561.772 108.56V105.32H559.772V108.56H561.772ZM713.45 178.94L712.496 179.24L712.498 179.248L713.45 178.94ZM729.83 180.38L729.066 179.734L729.059 179.743L729.052 179.752L729.83 180.38ZM730.73 114.14L731.6 113.647L731.6 113.647L730.73 114.14ZM713.63 116.66L712.665 116.397L712.665 116.397L713.63 116.66ZM736.13 191L735.142 191.155L735.275 192H736.13V191ZM734.15 178.4L735.138 178.245L734.595 174.795L733.229 178.009L734.15 178.4ZM685.19 181.64L684.393 182.244L684.399 182.252L685.19 181.64ZM733.25 112.34L732.381 112.836L734.25 116.106V112.34H733.25ZM733.25 59.24H734.25V58.24H733.25V59.24ZM722.27 59.24H721.27V60.24H722.27V59.24ZM722.27 56V55H721.27V56H722.27ZM767.27 56H768.27V55H767.27V56ZM767.27 187.76H766.27V188.76H767.27V187.76ZM776.09 187.76H777.09V186.76H776.09V187.76ZM776.09 191V192H777.09V191H776.09ZM710.47 153.74C710.47 166.318 711.123 174.871 712.496 179.24L714.404 178.64C713.137 174.609 712.47 166.362 712.47 153.74H710.47ZM712.498 179.248C713.195 181.403 714.208 183.116 715.592 184.292C716.992 185.482 718.699 186.06 720.65 186.06V184.06C719.12 184.06 717.887 183.618 716.887 182.768C715.871 181.904 715.024 180.557 714.401 178.632L712.498 179.248ZM720.65 186.06C724.589 186.06 727.922 184.333 730.608 181.008L729.052 179.752C726.697 182.667 723.911 184.06 720.65 184.06V186.06ZM730.593 181.026C733.446 177.654 734.79 172.763 734.79 166.52H732.79C732.79 172.517 731.493 176.866 729.066 179.734L730.593 181.026ZM734.79 166.52V127.28H732.79V166.52H734.79ZM734.79 127.28C734.79 121.989 733.744 117.43 731.6 113.647L729.86 114.633C731.796 118.05 732.79 122.251 732.79 127.28H734.79ZM731.6 113.647C729.392 109.751 726.069 107.74 721.73 107.74V109.74C725.31 109.74 727.987 111.329 729.86 114.633L731.6 113.647ZM721.73 107.74C719.502 107.74 717.582 108.493 716.036 110.005C714.514 111.493 713.412 113.658 712.665 116.397L714.594 116.923C715.287 114.382 716.256 112.587 717.434 111.435C718.587 110.307 719.997 109.74 721.73 109.74V107.74ZM712.665 116.397C711.186 121.82 710.47 131.181 710.47 144.38H712.47C712.47 131.179 713.193 122.06 714.594 116.923L712.665 116.397ZM710.47 144.38V153.74H712.47V144.38H710.47ZM737.118 190.845L735.138 178.245L733.162 178.555L735.142 191.155L737.118 190.845ZM733.229 178.009C731.266 182.629 728.314 186.053 724.378 188.335C720.43 190.624 715.426 191.8 709.31 191.8V193.8C715.674 193.8 721.049 192.576 725.381 190.065C729.725 187.547 732.953 183.771 735.07 178.791L733.229 178.009ZM709.31 191.8C699.265 191.8 691.531 188.197 685.98 181.028L684.399 182.252C690.368 189.963 698.715 193.8 709.31 193.8V191.8ZM685.987 181.036C680.535 173.845 677.73 163 677.73 148.34H675.73C675.73 163.2 678.564 174.555 684.393 182.244L685.987 181.036ZM677.73 148.34C677.73 133.506 680.683 122.565 686.422 115.347C692.127 108.174 700.713 104.52 712.37 104.52V102.52C700.267 102.52 691.032 106.336 684.857 114.103C678.716 121.825 675.73 133.294 675.73 148.34H677.73ZM712.37 104.52C722.786 104.52 729.285 107.418 732.381 112.836L734.118 111.844C730.494 105.502 723.074 102.52 712.37 102.52V104.52ZM734.25 112.34V59.24H732.25V112.34H734.25ZM733.25 58.24H722.27V60.24H733.25V58.24ZM723.27 59.24V56H721.27V59.24H723.27ZM722.27 57H767.27V55H722.27V57ZM766.27 56V187.76H768.27V56H766.27ZM767.27 188.76H776.09V186.76H767.27V188.76ZM775.09 187.76V191H777.09V187.76H775.09ZM776.09 190H736.13V192H776.09V190ZM832.77 119L833.634 119.504L833.634 119.504L832.77 119ZM827.73 187.76H826.73V188.76H827.73V187.76ZM840.51 187.76H841.51V186.76H840.51V187.76ZM840.51 191V192H841.51V191H840.51ZM784.35 191H783.35V192H784.35V191ZM784.35 187.76V186.76H783.35V187.76H784.35ZM794.25 187.76V188.76H795.25V187.76H794.25ZM794.25 108.56H795.25V107.56H794.25V108.56ZM784.35 108.56H783.35V109.56H784.35V108.56ZM784.35 105.32V104.32H783.35V105.32H784.35ZM827.73 105.32H828.73V104.32H827.73V105.32ZM827.73 122.6H826.73L828.699 122.847L827.73 122.6ZM836.73 108.56L837.319 109.368L837.326 109.363L837.333 109.357L836.73 108.56ZM865.53 108.38L864.849 109.112L864.862 109.124L864.875 109.136L865.53 108.38ZM866.97 135.2L866.207 134.554L866.207 134.554L866.97 135.2ZM842.67 134.48L841.851 135.053L841.857 135.062L841.864 135.071L842.67 134.48ZM841.77 119.54V118.54H841.027L840.813 119.251L841.77 119.54ZM848.25 119.54V120.54H848.873L849.148 119.98L848.25 119.54ZM844.47 109.36C839.516 109.36 835.348 112.596 831.906 118.496L833.634 119.504C836.912 113.884 840.544 111.36 844.47 111.36V109.36ZM831.906 118.496C828.442 124.436 826.73 131.456 826.73 139.52H828.73C828.73 131.744 830.378 125.084 833.634 119.504L831.906 118.496ZM826.73 139.52V187.76H828.73V139.52H826.73ZM827.73 188.76H840.51V186.76H827.73V188.76ZM839.51 187.76V191H841.51V187.76H839.51ZM840.51 190H784.35V192H840.51V190ZM785.35 191V187.76H783.35V191H785.35ZM784.35 188.76H794.25V186.76H784.35V188.76ZM795.25 187.76V108.56H793.25V187.76H795.25ZM794.25 107.56H784.35V109.56H794.25V107.56ZM785.35 108.56V105.32H783.35V108.56H785.35ZM784.35 106.32H827.73V104.32H784.35V106.32ZM826.73 105.32V122.6H828.73V105.32H826.73ZM828.699 122.847C830.211 116.917 833.095 112.451 837.319 109.368L836.141 107.752C831.485 111.149 828.369 116.043 826.761 122.353L828.699 122.847ZM837.333 109.357C841.597 106.131 846.425 104.52 851.85 104.52V102.52C845.995 102.52 840.743 104.269 836.127 107.763L837.333 109.357ZM851.85 104.52C857.287 104.52 861.587 106.076 864.849 109.112L866.211 107.648C862.513 104.204 857.693 102.52 851.85 102.52V104.52ZM864.875 109.136C868.206 112.022 869.93 116.216 869.93 121.88H871.93C871.93 115.784 870.054 110.978 866.185 107.624L864.875 109.136ZM869.93 121.88C869.93 127.499 868.642 131.676 866.207 134.554L867.733 135.846C870.578 132.484 871.93 127.781 871.93 121.88H869.93ZM866.207 134.554C863.817 137.378 860.065 138.88 854.73 138.88V140.88C860.435 140.88 864.843 139.262 867.733 135.846L866.207 134.554ZM854.73 138.88C849.573 138.88 845.888 137.177 843.476 133.889L841.864 135.071C844.732 138.983 849.087 140.88 854.73 140.88V138.88ZM843.489 133.907C841.22 130.665 840.849 126.049 842.727 119.829L840.813 119.251C838.851 125.751 839.08 131.095 841.851 135.053L843.489 133.907ZM841.77 120.54H848.25V118.54H841.77V120.54ZM849.148 119.98C849.921 118.403 850.444 116.976 850.684 115.71C850.923 114.447 850.893 113.278 850.48 112.274C849.607 110.155 847.337 109.36 844.47 109.36V111.36C847.123 111.36 848.243 112.095 848.63 113.036C848.847 113.562 848.914 114.305 848.719 115.338C848.524 116.367 848.079 117.617 847.352 119.1L849.148 119.98ZM922.854 148.7V149.7H923.854V148.7H922.854ZM920.874 111.98L919.917 112.27L919.923 112.288L919.929 112.305L920.874 111.98ZM907.734 107.84L908.275 108.681L908.282 108.677L908.289 108.672L907.734 107.84ZM906.294 118.46L905.351 118.793L905.587 119.46H906.294V118.46ZM910.794 118.46L911.729 118.104L911.484 117.46H910.794V118.46ZM907.734 136.82L908.378 137.586L908.386 137.578L908.395 137.571L907.734 136.82ZM948.054 110.9L947.381 111.639L947.389 111.647L947.398 111.655L948.054 110.9ZM968.754 164.9L968.821 163.902L967.815 163.835L967.756 164.842L968.754 164.9ZM971.454 165.08L972.453 165.125L972.498 164.147L971.521 164.082L971.454 165.08ZM965.514 186.86L966.266 187.52L966.266 187.52L965.514 186.86ZM923.574 179.48L924.546 179.244L923.737 175.916L922.628 179.156L923.574 179.48ZM916.554 189.56L917.124 190.382L917.124 190.382L916.554 189.56ZM886.314 153.56L886.736 154.467L886.742 154.464L886.314 153.56ZM911.334 182.9L910.386 183.216L910.395 183.244L910.406 183.271L911.334 182.9ZM920.334 181.1L919.454 180.626L919.451 180.632L919.447 180.639L920.334 181.1ZM922.854 151.58H923.854V150.58H922.854V151.58ZM917.634 149.7H922.854V147.7H917.634V149.7ZM923.854 148.7V134.84H921.854V148.7H923.854ZM923.854 134.84C923.854 123.462 923.203 115.677 921.82 111.655L919.929 112.305C921.186 115.963 921.854 123.418 921.854 134.84H923.854ZM921.831 111.69C921.193 109.582 920.205 107.904 918.811 106.754C917.404 105.593 915.668 105.04 913.674 105.04V107.04C915.281 107.04 916.545 107.477 917.538 108.296C918.543 109.126 919.356 110.418 919.917 112.27L921.831 111.69ZM913.674 105.04C911.317 105.04 909.144 105.699 907.18 107.008L908.289 108.672C909.925 107.581 911.712 107.04 913.674 107.04V105.04ZM907.194 106.999C905.22 108.268 904.214 110.149 904.214 112.52H906.214C906.214 110.811 906.889 109.572 908.275 108.681L907.194 106.999ZM904.214 112.52C904.214 114.567 904.598 116.659 905.351 118.793L907.237 118.127C906.55 116.181 906.214 114.313 906.214 112.52H904.214ZM906.294 119.46H910.794V117.46H906.294V119.46ZM909.86 118.816C910.765 121.191 911.234 124.123 911.234 127.64H913.234C913.234 123.957 912.744 120.769 911.729 118.104L909.86 118.816ZM911.234 127.64C911.234 130.789 909.893 133.588 907.074 136.069L908.395 137.571C911.575 134.772 913.234 131.451 913.234 127.64H911.234ZM907.091 136.054C904.3 138.399 900.76 139.6 896.394 139.6V141.6C901.149 141.6 905.169 140.281 908.378 137.586L907.091 136.054ZM896.394 139.6C891.38 139.6 887.804 138.39 885.479 136.145C883.16 133.908 881.914 130.477 881.914 125.66H879.914C879.914 130.803 881.249 134.842 884.09 137.585C886.925 140.32 891.089 141.6 896.394 141.6V139.6ZM881.914 125.66C881.914 118.628 884.867 113.424 890.827 109.917C896.868 106.361 906.06 104.52 918.534 104.52V102.52C905.929 102.52 896.31 104.369 889.812 108.193C883.231 112.066 879.914 117.932 879.914 125.66H881.914ZM918.534 104.52C932.771 104.52 942.275 106.987 947.381 111.639L948.728 110.161C943.034 104.973 932.857 102.52 918.534 102.52V104.52ZM947.398 111.655C952.58 116.16 955.334 124.659 955.334 137.54H957.334C957.334 124.501 954.569 115.24 948.711 110.145L947.398 111.655ZM955.334 137.54V174.08H957.334V137.54H955.334ZM955.334 174.08C955.334 177.26 955.772 179.805 956.766 181.587C957.271 182.493 957.93 183.219 958.758 183.713C959.587 184.209 960.53 184.44 961.554 184.44V182.44C960.838 182.44 960.26 182.281 959.784 181.997C959.306 181.711 958.877 181.267 958.513 180.613C957.767 179.275 957.334 177.14 957.334 174.08H955.334ZM961.554 184.44C964.236 184.44 966.102 182.371 967.347 179.167C968.604 175.929 969.391 171.168 969.753 164.958L967.756 164.842C967.398 170.992 966.625 175.501 965.482 178.443C964.326 181.419 962.953 182.44 961.554 182.44V184.44ZM968.688 165.898L971.388 166.078L971.521 164.082L968.821 163.902L968.688 165.898ZM970.455 165.035C969.977 175.56 968.002 182.514 964.763 186.2L966.266 187.52C969.986 183.286 971.972 175.72 972.453 165.125L970.455 165.035ZM964.763 186.2C961.552 189.854 956.192 191.8 948.414 191.8V193.8C956.476 193.8 962.517 191.786 966.266 187.52L964.763 186.2ZM948.414 191.8C941.299 191.8 935.814 190.7 931.877 188.589C927.979 186.499 925.557 183.399 924.546 179.244L922.603 179.716C923.752 184.441 926.549 188.001 930.932 190.351C935.274 192.68 941.13 193.8 948.414 193.8V191.8ZM922.628 179.156C921.119 183.569 918.887 186.729 915.985 188.738L917.124 190.382C920.462 188.071 922.91 184.511 924.521 179.804L922.628 179.156ZM915.985 188.738C913.104 190.733 908.78 191.8 902.874 191.8V193.8C908.969 193.8 913.765 192.707 917.124 190.382L915.985 188.738ZM902.874 191.8C894.105 191.8 887.714 190.004 883.527 186.581C879.379 183.19 877.234 178.067 877.234 171.02H875.234C875.234 178.493 877.529 184.26 882.261 188.129C886.955 191.966 893.884 193.8 902.874 193.8V191.8ZM877.234 171.02C877.234 166.889 878.049 163.487 879.62 160.765C881.187 158.051 883.542 155.95 886.736 154.467L885.893 152.653C882.367 154.29 879.682 156.659 877.888 159.765C876.1 162.863 875.234 166.631 875.234 171.02H877.234ZM886.742 154.464C893.378 151.321 903.637 149.7 917.634 149.7V147.7C903.552 147.7 892.931 149.319 885.886 152.656L886.742 154.464ZM909.434 170.84C909.434 173.973 909.51 176.565 909.662 178.609C909.813 180.631 910.044 182.191 910.386 183.216L912.283 182.584C912.025 181.809 911.806 180.459 911.657 178.461C911.509 176.485 911.434 173.947 911.434 170.84H909.434ZM910.406 183.271C910.819 184.304 911.418 185.153 912.238 185.739C913.064 186.329 914.041 186.6 915.114 186.6V184.6C914.388 184.6 913.835 184.421 913.401 184.111C912.961 183.797 912.57 183.296 912.263 182.529L910.406 183.271ZM915.114 186.6C917.63 186.6 919.625 184.633 921.222 181.561L919.447 180.639C917.924 183.567 916.439 184.6 915.114 184.6V186.6ZM921.215 181.574C923.004 178.252 923.854 173.806 923.854 168.32H921.854C921.854 173.634 921.025 177.708 919.454 180.626L921.215 181.574ZM923.854 168.32V151.58H921.854V168.32H923.854ZM922.854 150.58H921.594V152.58H922.854V150.58ZM921.594 150.58C917.592 150.58 914.47 152.071 912.398 155.112C910.373 158.084 909.434 162.418 909.434 167.96H911.434C911.434 162.582 912.356 158.726 914.051 156.238C915.699 153.819 918.157 152.58 921.594 152.58V150.58ZM909.434 167.96V170.84H911.434V167.96H909.434Z" fill="#202020"/>
<path d="M254.36 244.56V241.32H300.8V244.56H293.42L309.62 305.22L325.64 244.56H313.22V241.32H337.52V244.56H329.96L308.36 327H283.7L268.04 271.74L251.12 327H227L200.36 244.56H192.26V241.32H246.8V244.56H236L252.56 305.76L265.52 263.64L261.02 244.56H254.36ZM342.017 244.56V241.32H394.217V244.56H384.497L404.117 304.32L424.997 244.56H412.937V241.32H438.317V244.56H429.317L395.657 341.58C391.697 352.86 387.257 360.72 382.337 365.16C377.417 369.72 371.417 372 364.337 372C357.257 372 351.677 370.38 347.597 367.14C343.517 363.9 341.477 359.76 341.477 354.72C341.477 349.68 342.797 345.84 345.437 343.2C348.077 340.56 351.557 339.24 355.877 339.24C365.837 339.24 370.817 343.38 370.817 351.66C370.817 353.46 370.457 355.62 369.737 358.14H363.437C362.477 360.9 362.357 363.18 363.077 364.98C363.797 366.78 365.417 367.68 367.937 367.68C372.857 367.68 377.237 365.22 381.077 360.3C384.917 355.5 388.577 348.12 392.057 338.16L396.017 327H380.177L349.397 244.56H342.017ZM447.718 301.26V244.56H437.818V241.32H447.718V218.1L481.198 209.82V241.32H504.598V244.56H481.198V305.22C481.198 310.86 481.738 315 482.818 317.64C484.018 320.28 486.418 321.6 490.018 321.6C493.618 321.6 496.738 319.8 499.378 316.2C502.138 312.6 503.938 307.68 504.778 301.44L507.838 301.8C506.878 310.08 504.238 316.68 499.918 321.6C495.598 326.4 488.458 328.8 478.498 328.8C468.538 328.8 460.918 326.82 455.638 322.86C450.358 318.9 447.718 311.7 447.718 301.26ZM613.979 327H572.939L570.959 313.86C569.039 318.66 566.159 322.38 562.319 325.02C558.599 327.54 553.019 328.8 545.579 328.8C526.979 328.8 517.679 318.78 517.679 298.74V244.56H507.599V241.32H551.159V303.06C551.159 310.26 551.639 315 552.599 317.28C553.679 319.56 555.719 320.7 558.719 320.7C561.839 320.7 564.599 318.84 566.999 315.12C569.399 311.4 570.599 306.24 570.599 299.64V244.56H562.319V241.32H604.079V323.76H613.979V327ZM616.943 192H661.043V323.76H671.123V327H617.663V323.76H627.563V195.24H616.943V192ZM717.816 284.7H723.036V270.84C723.036 259.44 722.376 251.82 721.056 247.98C719.856 244.02 717.456 242.04 713.856 242.04C711.696 242.04 709.716 242.64 707.916 243.84C706.236 244.92 705.396 246.48 705.396 248.52C705.396 250.44 705.756 252.42 706.476 254.46H710.976C711.936 256.98 712.416 260.04 712.416 263.64C712.416 267.12 710.916 270.18 707.916 272.82C704.916 275.34 701.136 276.6 696.576 276.6C686.256 276.6 681.096 271.62 681.096 261.66C681.096 246.9 693.636 239.52 718.716 239.52C732.996 239.52 742.836 241.98 748.236 246.9C753.756 251.7 756.516 260.58 756.516 273.54V310.08C756.516 316.32 758.256 319.44 761.736 319.44C765.816 319.44 768.216 313.26 768.936 300.9L771.636 301.08C771.156 311.64 769.176 318.9 765.696 322.86C762.216 326.82 756.516 328.8 748.596 328.8C734.196 328.8 725.916 324.36 723.756 315.48C722.196 320.04 719.856 323.4 716.736 325.56C713.616 327.72 709.056 328.8 703.056 328.8C685.296 328.8 676.416 321.54 676.416 307.02C676.416 298.5 679.776 292.68 686.496 289.56C693.336 286.32 703.776 284.7 717.816 284.7ZM710.616 306.84C710.616 313.08 710.916 317.1 711.516 318.9C712.236 320.7 713.496 321.6 715.296 321.6C717.216 321.6 718.956 320.1 720.516 317.1C722.196 313.98 723.036 309.72 723.036 304.32V287.58H721.776C714.336 287.58 710.616 293.04 710.616 303.96V306.84ZM773.765 241.32H817.145V257.88C819.065 252.36 822.005 247.92 825.965 244.56C829.925 241.2 835.925 239.52 843.965 239.52C862.565 239.52 871.865 249.54 871.865 269.58V323.76H881.945V327H831.005V323.76H838.385V265.26C838.385 258.06 837.905 253.44 836.945 251.4C835.985 249.24 834.245 248.16 831.725 248.16C827.885 248.16 824.465 250.68 821.465 255.72C818.585 260.76 817.145 266.88 817.145 274.08V323.76H824.885V327H773.765V323.76H783.665V244.56H773.765V241.32ZM874.459 244.56V241.32H926.659V244.56H916.939L936.559 304.32L957.439 244.56H945.379V241.32H970.759V244.56H961.759L928.099 341.58C924.139 352.86 919.699 360.72 914.779 365.16C909.859 369.72 903.859 372 896.779 372C889.699 372 884.119 370.38 880.039 367.14C875.959 363.9 873.919 359.76 873.919 354.72C873.919 349.68 875.239 345.84 877.879 343.2C880.519 340.56 883.999 339.24 888.319 339.24C898.279 339.24 903.259 343.38 903.259 351.66C903.259 353.46 902.899 355.62 902.179 358.14H895.879C894.919 360.9 894.799 363.18 895.519 364.98C896.239 366.78 897.859 367.68 900.379 367.68C905.299 367.68 909.679 365.22 913.519 360.3C917.359 355.5 921.019 348.12 924.499 338.16L928.459 327H912.619L881.839 244.56H874.459Z" fill="#202020"/>
</svg>
